<svg width="354" height="340" viewBox="0 0 354 340" fill="none" xmlns="http://www.w3.org/2000/svg">
<path d="M14.7367 169.328C15.8368 169.525 16.7698 170.104 17.5359 171.067C18.3021 172.029 18.6851 173.12 18.6851 174.338C18.6851 175.379 18.4101 176.322 17.8601 177.166C17.3297 177.991 16.5538 178.649 15.5323 179.14C14.5108 179.612 13.3223 179.848 11.9669 179.848H3.77544V159.369H11.5839C12.9786 159.369 14.1768 159.605 15.1787 160.076C16.1805 160.548 16.9368 161.186 17.4475 161.991C17.9583 162.777 18.2137 163.661 18.2137 164.643C18.2137 165.822 17.8994 166.804 17.2708 167.59C16.6422 168.376 15.7975 168.955 14.7367 169.328ZM7.13453 167.973H11.2892C12.3893 167.973 13.2438 167.727 13.8527 167.236C14.4813 166.726 14.7956 165.999 14.7956 165.056C14.7956 164.133 14.4813 163.416 13.8527 162.905C13.2438 162.374 12.3893 162.109 11.2892 162.109H7.13453V167.973ZM11.6723 177.107C12.8116 177.107 13.7054 176.832 14.3536 176.282C15.0019 175.732 15.326 174.966 15.326 173.984C15.326 172.982 14.9822 172.187 14.2947 171.597C13.6072 171.008 12.6937 170.713 11.5544 170.713H7.13453V177.107H11.6723ZM21.2157 171.656C21.2157 170.026 21.5497 168.582 22.2175 167.325C22.9051 166.068 23.8283 165.095 24.9873 164.408C26.166 163.7 27.4625 163.347 28.8768 163.347C30.1537 163.347 31.2635 163.602 32.2064 164.113C33.169 164.604 33.9351 165.223 34.5048 165.969V163.612H37.8933V179.848H34.5048V177.431C33.9351 178.198 33.1592 178.836 32.177 179.347C31.1948 179.857 30.0751 180.113 28.8179 180.113C27.4232 180.113 26.1463 179.759 24.9873 179.052C23.8283 178.325 22.9051 177.323 22.2175 176.047C21.5497 174.75 21.2157 173.287 21.2157 171.656ZM34.5048 171.715C34.5048 170.595 34.269 169.623 33.7976 168.798C33.3458 167.973 32.7466 167.344 32.0002 166.912C31.2537 166.48 30.4483 166.264 29.584 166.264C28.7197 166.264 27.9143 166.48 27.1678 166.912C26.4213 167.325 25.8124 167.943 25.3409 168.769C24.8891 169.574 24.6632 170.536 24.6632 171.656C24.6632 172.776 24.8891 173.758 25.3409 174.603C25.8124 175.447 26.4213 176.096 27.1678 176.547C27.9339 176.98 28.7393 177.196 29.584 177.196C30.4483 177.196 31.2537 176.98 32.0002 176.547C32.7466 176.115 33.3458 175.487 33.7976 174.662C34.269 173.817 34.5048 172.835 34.5048 171.715ZM41.1857 171.715C41.1857 170.045 41.5196 168.582 42.1875 167.325C42.875 166.048 43.8179 165.066 45.0162 164.378C46.2145 163.691 47.5896 163.347 49.1414 163.347C51.1058 163.347 52.7264 163.818 54.0033 164.761C55.2998 165.684 56.1739 167.01 56.6257 168.739H53.0014C52.7068 167.934 52.2353 167.305 51.5871 166.853C50.9388 166.401 50.1236 166.176 49.1414 166.176C47.7664 166.176 46.6663 166.667 45.8413 167.649C45.0359 168.611 44.6332 169.967 44.6332 171.715C44.6332 173.463 45.0359 174.829 45.8413 175.811C46.6663 176.793 47.7664 177.284 49.1414 177.284C51.0862 177.284 52.3728 176.43 53.0014 174.721H56.6257C56.1543 176.371 55.2703 177.687 53.9738 178.669C52.6773 179.632 51.0665 180.113 49.1414 180.113C47.5896 180.113 46.2145 179.769 45.0162 179.082C43.8179 178.374 42.875 177.392 42.1875 176.135C41.5196 174.858 41.1857 173.385 41.1857 171.715ZM66.3968 171.745L73.8811 179.848H69.3434L63.3324 172.864V179.848H59.9733V158.043H63.3324V170.713L69.2256 163.612H73.8811L66.3968 171.745ZM88.7528 167.767V170.595H76.6424V167.767H88.7528ZM96.8842 162.08V168.091H103.956V170.831H96.8842V177.107H104.84V179.848H93.5251V159.339H104.84V162.08H96.8842ZM117.169 163.347C118.446 163.347 119.585 163.612 120.587 164.142C121.608 164.673 122.404 165.459 122.974 166.5C123.543 167.541 123.828 168.798 123.828 170.271V179.848H120.499V170.772C120.499 169.319 120.135 168.209 119.408 167.443C118.681 166.657 117.689 166.264 116.432 166.264C115.175 166.264 114.173 166.657 113.427 167.443C112.7 168.209 112.336 169.319 112.336 170.772V179.848H108.977V163.612H112.336V165.468C112.887 164.8 113.584 164.28 114.429 163.907C115.293 163.533 116.206 163.347 117.169 163.347ZM126.993 171.656C126.993 170.026 127.327 168.582 127.995 167.325C128.683 166.068 129.606 165.095 130.765 164.408C131.943 163.7 133.25 163.347 134.684 163.347C135.745 163.347 136.786 163.583 137.807 164.054C138.848 164.506 139.673 165.115 140.282 165.881V158.043H143.671V179.848H140.282V177.402C139.732 178.188 138.966 178.836 137.984 179.347C137.021 179.857 135.911 180.113 134.654 180.113C133.24 180.113 131.943 179.759 130.765 179.052C129.606 178.325 128.683 177.323 127.995 176.047C127.327 174.75 126.993 173.287 126.993 171.656ZM140.282 171.715C140.282 170.595 140.047 169.623 139.575 168.798C139.123 167.973 138.524 167.344 137.778 166.912C137.031 166.48 136.226 166.264 135.361 166.264C134.497 166.264 133.692 166.48 132.945 166.912C132.199 167.325 131.59 167.943 131.118 168.769C130.667 169.574 130.441 170.536 130.441 171.656C130.441 172.776 130.667 173.758 131.118 174.603C131.59 175.447 132.199 176.096 132.945 176.547C133.711 176.98 134.517 177.196 135.361 177.196C136.226 177.196 137.031 176.98 137.778 176.547C138.524 176.115 139.123 175.487 139.575 174.662C140.047 173.817 140.282 172.835 140.282 171.715ZM162.426 159.369C164.606 159.369 166.512 159.791 168.142 160.636C169.792 161.461 171.059 162.659 171.943 164.231C172.847 165.783 173.299 167.6 173.299 169.682C173.299 171.764 172.847 173.571 171.943 175.104C171.059 176.636 169.792 177.815 168.142 178.64C166.512 179.445 164.606 179.848 162.426 179.848H155.737V159.369H162.426ZM162.426 177.107C164.822 177.107 166.659 176.459 167.936 175.163C169.213 173.866 169.851 172.039 169.851 169.682C169.851 167.305 169.213 165.449 167.936 164.113C166.659 162.777 164.822 162.109 162.426 162.109H159.096V177.107H162.426ZM191.508 171.332C191.508 171.941 191.469 172.491 191.39 172.982H178.985C179.083 174.279 179.565 175.32 180.429 176.106C181.293 176.891 182.354 177.284 183.611 177.284C185.418 177.284 186.695 176.528 187.442 175.015H191.066C190.575 176.508 189.681 177.736 188.385 178.698C187.108 179.641 185.517 180.113 183.611 180.113C182.059 180.113 180.665 179.769 179.427 179.082C178.209 178.374 177.247 177.392 176.539 176.135C175.852 174.858 175.508 173.385 175.508 171.715C175.508 170.045 175.842 168.582 176.51 167.325C177.197 166.048 178.15 165.066 179.368 164.378C180.606 163.691 182.02 163.347 183.611 163.347C185.143 163.347 186.509 163.681 187.707 164.349C188.905 165.017 189.838 165.959 190.506 167.177C191.174 168.376 191.508 169.761 191.508 171.332ZM188.002 170.271C187.982 169.034 187.54 168.042 186.676 167.295C185.811 166.549 184.741 166.176 183.464 166.176C182.305 166.176 181.313 166.549 180.488 167.295C179.663 168.022 179.172 169.014 179.015 170.271H188.002ZM201.09 176.842L205.687 163.612H209.252L203.064 179.848H199.057L192.898 163.612H196.493L201.09 176.842ZM226.671 171.332C226.671 171.941 226.632 172.491 226.553 172.982H214.148C214.246 174.279 214.728 175.32 215.592 176.106C216.456 176.891 217.517 177.284 218.774 177.284C220.582 177.284 221.858 176.528 222.605 175.015H226.229C225.738 176.508 224.844 177.736 223.548 178.698C222.271 179.641 220.68 180.113 218.774 180.113C217.223 180.113 215.828 179.769 214.59 179.082C213.372 178.374 212.41 177.392 211.703 176.135C211.015 174.858 210.671 173.385 210.671 171.715C210.671 170.045 211.005 168.582 211.673 167.325C212.361 166.048 213.313 165.066 214.531 164.378C215.769 163.691 217.183 163.347 218.774 163.347C220.307 163.347 221.672 163.681 222.87 164.349C224.068 165.017 225.001 165.959 225.669 167.177C226.337 168.376 226.671 169.761 226.671 171.332ZM223.165 170.271C223.145 169.034 222.703 168.042 221.839 167.295C220.975 166.549 219.904 166.176 218.627 166.176C217.468 166.176 216.476 166.549 215.651 167.295C214.826 168.022 214.335 169.014 214.178 170.271H223.165ZM233.336 158.043V179.848H229.977V158.043H233.336ZM244.789 180.113C243.256 180.113 241.871 179.769 240.634 179.082C239.396 178.374 238.424 177.392 237.717 176.135C237.01 174.858 236.656 173.385 236.656 171.715C236.656 170.065 237.019 168.602 237.746 167.325C238.473 166.048 239.465 165.066 240.722 164.378C241.979 163.691 243.384 163.347 244.936 163.347C246.488 163.347 247.892 163.691 249.149 164.378C250.407 165.066 251.399 166.048 252.125 167.325C252.852 168.602 253.216 170.065 253.216 171.715C253.216 173.365 252.842 174.829 252.096 176.106C251.35 177.382 250.328 178.374 249.032 179.082C247.755 179.769 246.34 180.113 244.789 180.113ZM244.789 177.196C245.653 177.196 246.458 176.989 247.205 176.577C247.971 176.164 248.59 175.546 249.061 174.721C249.533 173.896 249.768 172.894 249.768 171.715C249.768 170.536 249.542 169.544 249.091 168.739C248.639 167.914 248.04 167.295 247.293 166.883C246.547 166.47 245.741 166.264 244.877 166.264C244.013 166.264 243.207 166.47 242.461 166.883C241.734 167.295 241.154 167.914 240.722 168.739C240.29 169.544 240.074 170.536 240.074 171.715C240.074 173.463 240.516 174.819 241.4 175.781C242.304 176.724 243.433 177.196 244.789 177.196ZM259.895 165.999C260.465 165.252 261.241 164.624 262.223 164.113C263.205 163.602 264.315 163.347 265.553 163.347C266.967 163.347 268.254 163.7 269.413 164.408C270.592 165.095 271.515 166.068 272.183 167.325C272.851 168.582 273.185 170.026 273.185 171.656C273.185 173.287 272.851 174.75 272.183 176.047C271.515 177.323 270.592 178.325 269.413 179.052C268.254 179.759 266.967 180.113 265.553 180.113C264.315 180.113 263.215 179.867 262.253 179.376C261.29 178.865 260.504 178.237 259.895 177.49V187.568H256.536V163.612H259.895V165.999ZM269.767 171.656C269.767 170.536 269.531 169.574 269.059 168.769C268.608 167.943 267.999 167.325 267.232 166.912C266.486 166.48 265.681 166.264 264.816 166.264C263.972 166.264 263.166 166.48 262.4 166.912C261.654 167.344 261.045 167.973 260.573 168.798C260.121 169.623 259.895 170.595 259.895 171.715C259.895 172.835 260.121 173.817 260.573 174.662C261.045 175.487 261.654 176.115 262.4 176.547C263.166 176.98 263.972 177.196 264.816 177.196C265.681 177.196 266.486 176.98 267.232 176.547C267.999 176.096 268.608 175.447 269.059 174.603C269.531 173.758 269.767 172.776 269.767 171.656ZM296.16 163.347C297.437 163.347 298.576 163.612 299.578 164.142C300.6 164.673 301.395 165.459 301.965 166.5C302.554 167.541 302.849 168.798 302.849 170.271V179.848H299.519V170.772C299.519 169.319 299.156 168.209 298.429 167.443C297.702 166.657 296.71 166.264 295.453 166.264C294.196 166.264 293.194 166.657 292.447 167.443C291.721 168.209 291.357 169.319 291.357 170.772V179.848H288.027V170.772C288.027 169.319 287.664 168.209 286.937 167.443C286.21 166.657 285.218 166.264 283.961 166.264C282.704 166.264 281.702 166.657 280.956 167.443C280.229 168.209 279.865 169.319 279.865 170.772V179.848H276.506V163.612H279.865V165.468C280.415 164.8 281.113 164.28 281.958 163.907C282.802 163.533 283.706 163.347 284.668 163.347C285.965 163.347 287.124 163.622 288.145 164.172C289.167 164.722 289.953 165.517 290.503 166.559C290.994 165.576 291.76 164.8 292.801 164.231C293.842 163.641 294.962 163.347 296.16 163.347ZM322.003 171.332C322.003 171.941 321.964 172.491 321.885 172.982H309.48C309.579 174.279 310.06 175.32 310.924 176.106C311.789 176.891 312.849 177.284 314.106 177.284C315.914 177.284 317.191 176.528 317.937 175.015H321.561C321.07 176.508 320.176 177.736 318.88 178.698C317.603 179.641 316.012 180.113 314.106 180.113C312.555 180.113 311.16 179.769 309.922 179.082C308.704 178.374 307.742 177.392 307.035 176.135C306.347 174.858 306.003 173.385 306.003 171.715C306.003 170.045 306.337 168.582 307.005 167.325C307.693 166.048 308.646 165.066 309.863 164.378C311.101 163.691 312.515 163.347 314.106 163.347C315.639 163.347 317.004 163.681 318.202 164.349C319.401 165.017 320.334 165.959 321.001 167.177C321.669 168.376 322.003 169.761 322.003 171.332ZM318.497 170.271C318.477 169.034 318.035 168.042 317.171 167.295C316.307 166.549 315.236 166.176 313.959 166.176C312.8 166.176 311.808 166.549 310.983 167.295C310.158 168.022 309.667 169.014 309.51 170.271H318.497ZM333.5 163.347C334.777 163.347 335.917 163.612 336.918 164.142C337.94 164.673 338.736 165.459 339.305 166.5C339.875 167.541 340.16 168.798 340.16 170.271V179.848H336.83V170.772C336.83 169.319 336.467 168.209 335.74 167.443C335.013 166.657 334.021 166.264 332.764 166.264C331.507 166.264 330.505 166.657 329.758 167.443C329.031 168.209 328.668 169.319 328.668 170.772V179.848H325.309V163.612H328.668V165.468C329.218 164.8 329.915 164.28 330.76 163.907C331.624 163.533 332.538 163.347 333.5 163.347ZM348.363 166.352V175.339C348.363 175.948 348.501 176.39 348.776 176.665C349.071 176.921 349.562 177.048 350.249 177.048H352.312V179.848H349.66C348.147 179.848 346.988 179.494 346.183 178.787C345.378 178.08 344.975 176.931 344.975 175.339V166.352H343.06V163.612H344.975V159.575H348.363V163.612H352.312V166.352H348.363Z" fill="#8800FF"/>
<path d="M88.2755 135.556H186.93C212.621 135.556 232.403 129.904 246.277 118.6C260.15 106.782 267.087 90.0823 267.087 68.5016C267.087 46.921 260.15 30.2217 246.277 18.4037C232.403 6.58576 212.621 0.676758 186.93 0.676758H88.2755V135.556Z" fill="#520099"/>
<path d="M137.628 98.7155H182.078C193.653 98.7155 202.566 96.169 208.817 91.0758C215.068 85.7512 218.193 78.2271 218.193 68.5038C218.193 58.7805 215.068 51.2565 208.817 45.9318C202.566 40.6072 193.653 37.9448 182.078 37.9448H137.628V98.7155Z" fill="white"/>
<path d="M88.2755 339.533H186.93C212.621 339.533 232.403 333.881 246.277 322.577C260.15 310.759 267.087 294.06 267.087 272.479C267.087 250.899 260.15 234.199 246.277 222.381C232.403 210.563 212.621 204.654 186.93 204.654H88.2755V339.533Z" fill="#520099"/>
<path d="M137.628 302.693H182.078C193.653 302.693 202.566 300.146 208.817 295.053C215.068 289.728 218.193 282.204 218.193 272.481C218.193 262.758 215.068 255.234 208.817 249.909C202.566 244.584 193.653 241.922 182.078 241.922H137.628V302.693Z" fill="white"/>
</svg>
