<svg width="312" height="337" viewBox="0 0 312 337" fill="none" xmlns="http://www.w3.org/2000/svg">
<path d="M258.443 106.553C283.855 106.553 300.74 80.7155 284.511 61.1596C274.701 49.3375 263.268 38.8491 250.482 30.0349C223.044 11.1183 190.612 0.762981 157.288 0.278551C123.963 -0.205879 91.2441 9.20231 63.267 27.3134C35.2899 45.4244 13.3116 71.425 0.111511 102.027L61.5224 128.516C69.4834 110.06 82.7385 94.3794 99.6115 83.4566C116.485 72.5338 136.218 66.8597 156.315 67.1519C176.413 67.444 195.973 73.6893 212.521 85.098C215.007 86.8116 217.064 88.0731 218.789 89.0428C231.639 96.2636 243.703 106.553 258.443 106.553Z" fill="#520099"/>
<path d="M2.17951 168.203C2.17951 166.2 2.64114 164.402 3.5644 162.811C4.50731 161.22 5.77433 159.982 7.36549 159.098C8.97628 158.195 10.7344 157.743 12.6399 157.743C14.8203 157.743 16.7552 158.283 18.4446 159.364C20.1536 160.424 21.3912 161.937 22.1573 163.901H18.1205C17.5901 162.821 16.8535 162.015 15.9106 161.485C14.9677 160.955 13.8774 160.689 12.6399 160.689C11.2844 160.689 10.0763 160.994 9.01557 161.603C7.9548 162.212 7.11994 163.086 6.51098 164.225C5.92166 165.365 5.62701 166.691 5.62701 168.203C5.62701 169.716 5.92166 171.042 6.51098 172.181C7.11994 173.32 7.9548 174.204 9.01557 174.833C10.0763 175.442 11.2844 175.747 12.6399 175.747C13.8774 175.747 14.9677 175.481 15.9106 174.951C16.8535 174.421 17.5901 173.615 18.1205 172.535H22.1573C21.3912 174.499 20.1536 176.012 18.4446 177.072C16.7552 178.133 14.8203 178.664 12.6399 178.664C10.7148 178.664 8.95664 178.222 7.36549 177.338C5.77433 176.434 4.50731 175.187 3.5644 173.596C2.64114 172.004 2.17951 170.207 2.17951 168.203ZM40.7041 162.251L30.7447 186.118H27.2678L30.5679 178.222L24.1739 162.251H27.916L32.4832 174.627L37.2272 162.251H40.7041ZM46.5982 164.667C47.1679 163.882 47.9438 163.243 48.926 162.752C49.9278 162.241 51.0377 161.986 52.2556 161.986C53.6896 161.986 54.9861 162.33 56.1451 163.017C57.3041 163.705 58.2175 164.687 58.8854 165.964C59.5533 167.221 59.8873 168.665 59.8873 170.295C59.8873 171.926 59.5533 173.389 58.8854 174.686C58.2175 175.963 57.2943 176.964 56.1157 177.691C54.9567 178.398 53.67 178.752 52.2556 178.752C50.9984 178.752 49.8787 178.506 48.8965 178.015C47.934 177.524 47.1679 176.896 46.5982 176.13V178.487H43.2391V156.682H46.5982V164.667ZM56.4692 170.295C56.4692 169.176 56.2335 168.213 55.7621 167.408C55.3103 166.583 54.7013 165.964 53.9352 165.551C53.1887 165.119 52.3833 164.903 51.519 164.903C50.6743 164.903 49.8689 165.119 49.1028 165.551C48.3563 165.984 47.7474 166.612 47.2759 167.437C46.8241 168.262 46.5982 169.235 46.5982 170.354C46.5982 171.474 46.8241 172.456 47.2759 173.301C47.7474 174.126 48.3563 174.754 49.1028 175.187C49.8689 175.619 50.6743 175.835 51.519 175.835C52.3833 175.835 53.1887 175.619 53.9352 175.187C54.7013 174.735 55.3103 174.087 55.7621 173.242C56.2335 172.397 56.4692 171.415 56.4692 170.295ZM78.0893 169.971C78.0893 170.58 78.05 171.13 77.9714 171.621H65.5663C65.6646 172.918 66.1458 173.959 67.0102 174.745C67.8745 175.53 68.9353 175.923 70.1925 175.923C71.9997 175.923 73.2765 175.167 74.023 173.654H77.6473C77.1562 175.147 76.2624 176.375 74.9659 177.338C73.6891 178.281 72.0979 178.752 70.1925 178.752C68.6406 178.752 67.2459 178.408 66.0083 177.721C64.7904 177.014 63.8279 176.031 63.1207 174.774C62.4331 173.497 62.0894 172.024 62.0894 170.354C62.0894 168.685 62.4233 167.221 63.0912 165.964C63.7787 164.687 64.7315 163.705 65.9494 163.017C67.187 162.33 68.6013 161.986 70.1925 161.986C71.7247 161.986 73.0899 162.32 74.2882 162.988C75.4865 163.656 76.4196 164.599 77.0874 165.817C77.7553 167.015 78.0893 168.4 78.0893 169.971ZM74.5829 168.91C74.5632 167.673 74.1212 166.681 73.2569 165.934C72.3926 165.188 71.322 164.815 70.0451 164.815C68.8861 164.815 67.8941 165.188 67.0691 165.934C66.2441 166.661 65.753 167.653 65.5958 168.91H74.5829ZM84.7541 164.608C85.2452 163.783 85.8934 163.145 86.6988 162.693C87.5239 162.222 88.4962 161.986 89.6159 161.986V165.463H88.7614C87.4453 165.463 86.4434 165.797 85.7559 166.465C85.088 167.133 84.7541 168.292 84.7541 169.942V178.487H81.395V162.251H84.7541V164.608ZM107.105 178.693C105.73 178.693 104.493 178.457 103.393 177.986C102.293 177.495 101.428 176.807 100.8 175.923C100.171 175.039 99.8569 174.008 99.8569 172.829H103.452C103.53 173.713 103.874 174.44 104.483 175.01C105.112 175.58 105.986 175.864 107.105 175.864C108.264 175.864 109.168 175.589 109.816 175.039C110.465 174.47 110.789 173.743 110.789 172.859C110.789 172.171 110.582 171.611 110.17 171.179C109.777 170.747 109.276 170.413 108.667 170.177C108.078 169.942 107.253 169.686 106.192 169.411C104.856 169.058 103.766 168.704 102.921 168.351C102.096 167.977 101.389 167.408 100.8 166.642C100.21 165.875 99.9158 164.854 99.9158 163.577C99.9158 162.399 100.21 161.367 100.8 160.483C101.389 159.599 102.214 158.922 103.275 158.45C104.336 157.979 105.563 157.743 106.958 157.743C108.942 157.743 110.563 158.244 111.82 159.246C113.097 160.228 113.804 161.583 113.942 163.312H110.229C110.17 162.565 109.816 161.927 109.168 161.397C108.52 160.866 107.665 160.601 106.605 160.601C105.642 160.601 104.856 160.847 104.247 161.338C103.638 161.829 103.334 162.536 103.334 163.459C103.334 164.088 103.52 164.608 103.894 165.021C104.287 165.414 104.778 165.728 105.367 165.964C105.956 166.2 106.762 166.455 107.783 166.73C109.139 167.103 110.239 167.476 111.083 167.85C111.948 168.223 112.674 168.802 113.264 169.588C113.873 170.354 114.177 171.386 114.177 172.682C114.177 173.723 113.892 174.705 113.323 175.629C112.773 176.552 111.957 177.298 110.877 177.868C109.816 178.418 108.559 178.693 107.105 178.693ZM133.021 169.971C133.021 170.58 132.982 171.13 132.903 171.621H120.498C120.596 172.918 121.078 173.959 121.942 174.745C122.806 175.53 123.867 175.923 125.124 175.923C126.931 175.923 128.208 175.167 128.955 173.654H132.579C132.088 175.147 131.194 176.375 129.898 177.338C128.621 178.281 127.03 178.752 125.124 178.752C123.572 178.752 122.178 178.408 120.94 177.721C119.722 177.014 118.76 176.031 118.052 174.774C117.365 173.497 117.021 172.024 117.021 170.354C117.021 168.685 117.355 167.221 118.023 165.964C118.711 164.687 119.663 163.705 120.881 163.017C122.119 162.33 123.533 161.986 125.124 161.986C126.656 161.986 128.022 162.32 129.22 162.988C130.418 163.656 131.351 164.599 132.019 165.817C132.687 167.015 133.021 168.4 133.021 169.971ZM129.515 168.91C129.495 167.673 129.053 166.681 128.189 165.934C127.324 165.188 126.254 164.815 124.977 164.815C123.818 164.815 122.826 165.188 122.001 165.934C121.176 166.661 120.685 167.653 120.528 168.91H129.515ZM135.207 170.354C135.207 168.685 135.541 167.221 136.209 165.964C136.896 164.687 137.839 163.705 139.038 163.017C140.236 162.33 141.611 161.986 143.163 161.986C145.127 161.986 146.748 162.457 148.025 163.4C149.321 164.324 150.195 165.65 150.647 167.378H147.023C146.728 166.573 146.257 165.944 145.608 165.492C144.96 165.041 144.145 164.815 143.163 164.815C141.788 164.815 140.688 165.306 139.863 166.288C139.057 167.251 138.655 168.606 138.655 170.354C138.655 172.103 139.057 173.468 139.863 174.45C140.688 175.432 141.788 175.923 143.163 175.923C145.108 175.923 146.394 175.069 147.023 173.36H150.647C150.176 175.01 149.292 176.326 147.995 177.308C146.699 178.271 145.088 178.752 143.163 178.752C141.611 178.752 140.236 178.408 139.038 177.721C137.839 177.014 136.896 176.031 136.209 174.774C135.541 173.497 135.207 172.024 135.207 170.354ZM168.698 162.251V178.487H165.339V176.572C164.809 177.239 164.111 177.77 163.247 178.163C162.402 178.536 161.499 178.723 160.536 178.723C159.259 178.723 158.11 178.457 157.089 177.927C156.087 177.397 155.291 176.611 154.702 175.57C154.132 174.529 153.847 173.271 153.847 171.798V162.251H157.177V171.297C157.177 172.751 157.54 173.871 158.267 174.656C158.994 175.422 159.986 175.805 161.243 175.805C162.5 175.805 163.492 175.422 164.219 174.656C164.966 173.871 165.339 172.751 165.339 171.297V162.251H168.698ZM176.489 164.608C176.98 163.783 177.629 163.145 178.434 162.693C179.259 162.222 180.231 161.986 181.351 161.986V165.463H180.497C179.18 165.463 178.179 165.797 177.491 166.465C176.823 167.133 176.489 168.292 176.489 169.942V178.487H173.13V162.251H176.489V164.608ZM186.148 160.1C185.539 160.1 185.028 159.894 184.616 159.481C184.203 159.069 183.997 158.558 183.997 157.949C183.997 157.34 184.203 156.829 184.616 156.417C185.028 156.004 185.539 155.798 186.148 155.798C186.737 155.798 187.238 156.004 187.651 156.417C188.063 156.829 188.269 157.34 188.269 157.949C188.269 158.558 188.063 159.069 187.651 159.481C187.238 159.894 186.737 160.1 186.148 160.1ZM187.798 162.251V178.487H184.439V162.251H187.798ZM196.127 164.991V173.979C196.127 174.588 196.265 175.03 196.54 175.305C196.834 175.56 197.325 175.688 198.013 175.688H200.075V178.487H197.424C195.911 178.487 194.752 178.133 193.947 177.426C193.141 176.719 192.738 175.57 192.738 173.979V164.991H190.823V162.251H192.738V158.214H196.127V162.251H200.075V164.991H196.127ZM217.786 162.251L207.827 186.118H204.35L207.65 178.222L201.256 162.251H204.998L209.565 174.627L214.309 162.251H217.786Z" fill="#8800FF"/>
<path d="M0.111511 234.883C13.2744 265.501 35.221 291.528 63.176 309.673C91.131 327.818 123.839 337.266 157.164 336.822C190.488 336.378 222.933 326.063 250.395 307.179C263.28 298.319 274.797 287.759 284.668 275.847C300.774 256.411 285.068 230.736 259.825 230.736C245.211 230.736 232.114 240.929 219.252 247.868C217.41 248.861 215.195 250.185 212.486 252.048C195.928 263.434 176.365 269.654 156.272 269.921C136.18 270.189 116.459 264.492 99.6033 253.552C82.748 242.611 69.5154 226.918 61.5789 208.458L0.111511 234.883Z" fill="#520099"/>
</svg>
