<svg width="374" height="338" viewBox="0 0 374 338" fill="none" xmlns="http://www.w3.org/2000/svg">
<path d="M25.707 337.612H169.946C207.509 337.612 236.432 323.49 256.715 295.245C276.999 265.716 287.141 223.99 287.141 170.068C287.141 116.145 276.999 74.42 256.715 44.891C236.432 15.3621 207.509 0.597656 169.946 0.597656H25.707V337.612Z" fill="#520099"/>
<path d="M0.224258 245.987H206.429C260.128 245.987 301.477 239.619 330.474 226.884C359.472 213.57 373.971 194.757 373.971 170.445C373.971 146.132 359.472 127.319 330.474 114.005C301.477 100.691 260.128 94.0342 206.429 94.0342H0.224258V245.987Z" fill="white"/>
<path d="M76.9456 158.802C79.1261 158.802 81.0315 159.224 82.662 160.069C84.312 160.894 85.5791 162.092 86.463 163.664C87.3667 165.216 87.8185 167.033 87.8185 169.115C87.8185 171.197 87.3667 173.005 86.463 174.537C85.5791 176.069 84.312 177.248 82.662 178.073C81.0315 178.878 79.1261 179.281 76.9456 179.281H70.2569V158.802H76.9456ZM76.9456 176.54C79.3422 176.54 81.1788 175.892 82.4557 174.596C83.7325 173.299 84.371 171.472 84.371 169.115C84.371 166.738 83.7325 164.882 82.4557 163.546C81.1788 162.21 79.3422 161.542 76.9456 161.542H73.616V176.54H76.9456ZM90.0279 171.089C90.0279 169.459 90.3619 168.015 91.0298 166.758C91.7173 165.501 92.6406 164.528 93.7996 163.841C94.9782 163.134 96.2747 162.78 97.689 162.78C98.9659 162.78 100.076 163.035 101.019 163.546C101.981 164.037 102.747 164.656 103.317 165.402V163.045H106.706V179.281H103.317V176.865C102.747 177.631 101.971 178.269 100.989 178.78C100.007 179.291 98.8873 179.546 97.6301 179.546C96.2354 179.546 94.9585 179.192 93.7996 178.485C92.6406 177.758 91.7173 176.757 91.0298 175.48C90.3619 174.183 90.0279 172.72 90.0279 171.089ZM103.317 171.148C103.317 170.029 103.081 169.056 102.61 168.231C102.158 167.406 101.559 166.777 100.812 166.345C100.066 165.913 99.2605 165.697 98.3962 165.697C97.5319 165.697 96.7265 165.913 95.98 166.345C95.2336 166.758 94.6246 167.377 94.1531 168.202C93.7013 169.007 93.4754 169.97 93.4754 171.089C93.4754 172.209 93.7013 173.191 94.1531 174.036C94.6246 174.881 95.2336 175.529 95.98 175.981C96.7461 176.413 97.5515 176.629 98.3962 176.629C99.2605 176.629 100.066 176.413 100.812 175.981C101.559 175.548 102.158 174.92 102.61 174.095C103.081 173.25 103.317 172.268 103.317 171.148ZM115.037 165.785V174.773C115.037 175.381 115.174 175.823 115.449 176.098C115.744 176.354 116.235 176.482 116.922 176.482H118.985V179.281H116.333C114.82 179.281 113.661 178.927 112.856 178.22C112.051 177.513 111.648 176.364 111.648 174.773V165.785H109.733V163.045H111.648V159.008H115.037V163.045H118.985V165.785H115.037ZM120.961 171.089C120.961 169.459 121.295 168.015 121.963 166.758C122.651 165.501 123.574 164.528 124.733 163.841C125.911 163.134 127.208 162.78 128.622 162.78C129.899 162.78 131.009 163.035 131.952 163.546C132.915 164.037 133.681 164.656 134.25 165.402V163.045H137.639V179.281H134.25V176.865C133.681 177.631 132.905 178.269 131.922 178.78C130.94 179.291 129.821 179.546 128.563 179.546C127.169 179.546 125.892 179.192 124.733 178.485C123.574 177.758 122.651 176.757 121.963 175.48C121.295 174.183 120.961 172.72 120.961 171.089ZM134.25 171.148C134.25 170.029 134.015 169.056 133.543 168.231C133.091 167.406 132.492 166.777 131.746 166.345C130.999 165.913 130.194 165.697 129.33 165.697C128.465 165.697 127.66 165.913 126.913 166.345C126.167 166.758 125.558 167.377 125.086 168.202C124.635 169.007 124.409 169.97 124.409 171.089C124.409 172.209 124.635 173.191 125.086 174.036C125.558 174.881 126.167 175.529 126.913 175.981C127.679 176.413 128.485 176.629 129.33 176.629C130.194 176.629 130.999 176.413 131.746 175.981C132.492 175.548 133.091 174.92 133.543 174.095C134.015 173.25 134.25 172.268 134.25 171.148ZM156.453 179.487C155.078 179.487 153.84 179.251 152.74 178.78C151.64 178.289 150.776 177.601 150.147 176.717C149.518 175.833 149.204 174.802 149.204 173.623H152.799C152.878 174.507 153.221 175.234 153.83 175.804C154.459 176.373 155.333 176.658 156.453 176.658C157.612 176.658 158.515 176.383 159.164 175.833C159.812 175.264 160.136 174.537 160.136 173.653C160.136 172.965 159.93 172.405 159.517 171.973C159.124 171.541 158.623 171.207 158.014 170.971C157.425 170.736 156.6 170.48 155.539 170.205C154.204 169.852 153.113 169.498 152.269 169.145C151.444 168.771 150.736 168.202 150.147 167.436C149.558 166.669 149.263 165.648 149.263 164.371C149.263 163.192 149.558 162.161 150.147 161.277C150.736 160.393 151.561 159.715 152.622 159.244C153.683 158.773 154.911 158.537 156.305 158.537C158.289 158.537 159.91 159.038 161.167 160.04C162.444 161.022 163.151 162.377 163.289 164.106H159.576C159.517 163.359 159.164 162.721 158.515 162.191C157.867 161.66 157.013 161.395 155.952 161.395C154.989 161.395 154.204 161.641 153.595 162.132C152.986 162.623 152.681 163.33 152.681 164.253C152.681 164.882 152.868 165.402 153.241 165.815C153.634 166.208 154.125 166.522 154.714 166.758C155.304 166.994 156.109 167.249 157.13 167.524C158.486 167.897 159.586 168.27 160.431 168.644C161.295 169.017 162.022 169.596 162.611 170.382C163.22 171.148 163.525 172.18 163.525 173.476C163.525 174.517 163.24 175.499 162.67 176.423C162.12 177.346 161.305 178.092 160.224 178.662C159.164 179.212 157.906 179.487 156.453 179.487ZM166.368 171.148C166.368 169.478 166.702 168.015 167.37 166.758C168.058 165.481 169.001 164.499 170.199 163.811C171.397 163.124 172.772 162.78 174.324 162.78C176.289 162.78 177.909 163.251 179.186 164.194C180.483 165.118 181.357 166.444 181.808 168.172H178.184C177.89 167.367 177.418 166.738 176.77 166.286C176.122 165.835 175.306 165.609 174.324 165.609C172.949 165.609 171.849 166.1 171.024 167.082C170.219 168.044 169.816 169.4 169.816 171.148C169.816 172.897 170.219 174.262 171.024 175.244C171.849 176.226 172.949 176.717 174.324 176.717C176.269 176.717 177.556 175.863 178.184 174.154H181.808C181.337 175.804 180.453 177.12 179.157 178.102C177.86 179.065 176.249 179.546 174.324 179.546C172.772 179.546 171.397 179.202 170.199 178.515C169.001 177.807 168.058 176.825 167.37 175.568C166.702 174.291 166.368 172.818 166.368 171.148ZM186.865 160.894C186.256 160.894 185.745 160.688 185.333 160.275C184.92 159.863 184.714 159.352 184.714 158.743C184.714 158.134 184.92 157.623 185.333 157.211C185.745 156.798 186.256 156.592 186.865 156.592C187.454 156.592 187.955 156.798 188.368 157.211C188.78 157.623 188.987 158.134 188.987 158.743C188.987 159.352 188.78 159.863 188.368 160.275C187.955 160.688 187.454 160.894 186.865 160.894ZM188.515 163.045V179.281H185.156V163.045H188.515ZM207.806 170.765C207.806 171.374 207.766 171.924 207.688 172.415H195.283C195.381 173.712 195.862 174.753 196.726 175.539C197.591 176.324 198.652 176.717 199.909 176.717C201.716 176.717 202.993 175.961 203.739 174.448H207.364C206.872 175.941 205.979 177.169 204.682 178.132C203.405 179.075 201.814 179.546 199.909 179.546C198.357 179.546 196.962 179.202 195.725 178.515C194.507 177.807 193.544 176.825 192.837 175.568C192.149 174.291 191.806 172.818 191.806 171.148C191.806 169.478 192.14 168.015 192.807 166.758C193.495 165.481 194.448 164.499 195.666 163.811C196.903 163.124 198.318 162.78 199.909 162.78C201.441 162.78 202.806 163.114 204.004 163.782C205.203 164.45 206.136 165.393 206.804 166.61C207.472 167.809 207.806 169.194 207.806 170.765ZM204.299 169.704C204.279 168.467 203.837 167.475 202.973 166.728C202.109 165.982 201.038 165.609 199.761 165.609C198.602 165.609 197.61 165.982 196.785 166.728C195.96 167.455 195.469 168.447 195.312 169.704H204.299ZM219.303 162.78C220.58 162.78 221.719 163.045 222.721 163.576C223.742 164.106 224.538 164.892 225.107 165.933C225.677 166.974 225.962 168.231 225.962 169.704V179.281H222.632V170.205C222.632 168.752 222.269 167.642 221.542 166.876C220.815 166.09 219.823 165.697 218.566 165.697C217.309 165.697 216.307 166.09 215.561 166.876C214.834 167.642 214.47 168.752 214.47 170.205V179.281H211.111V163.045H214.47V164.901C215.02 164.234 215.718 163.713 216.562 163.34C217.427 162.967 218.34 162.78 219.303 162.78ZM229.127 171.148C229.127 169.478 229.461 168.015 230.129 166.758C230.816 165.481 231.759 164.499 232.958 163.811C234.156 163.124 235.531 162.78 237.083 162.78C239.047 162.78 240.668 163.251 241.945 164.194C243.241 165.118 244.115 166.444 244.567 168.172H240.943C240.648 167.367 240.177 166.738 239.528 166.286C238.88 165.835 238.065 165.609 237.083 165.609C235.708 165.609 234.608 166.1 233.783 167.082C232.977 168.044 232.575 169.4 232.575 171.148C232.575 172.897 232.977 174.262 233.783 175.244C234.608 176.226 235.708 176.717 237.083 176.717C239.028 176.717 240.314 175.863 240.943 174.154H244.567C244.096 175.804 243.212 177.12 241.915 178.102C240.619 179.065 239.008 179.546 237.083 179.546C235.531 179.546 234.156 179.202 232.958 178.515C231.759 177.807 230.816 176.825 230.129 175.568C229.461 174.291 229.127 172.818 229.127 171.148ZM262.795 170.765C262.795 171.374 262.756 171.924 262.677 172.415H250.272C250.37 173.712 250.851 174.753 251.716 175.539C252.58 176.324 253.641 176.717 254.898 176.717C256.705 176.717 257.982 175.961 258.729 174.448H262.353C261.862 175.941 260.968 177.169 259.672 178.132C258.395 179.075 256.804 179.546 254.898 179.546C253.346 179.546 251.951 179.202 250.714 178.515C249.496 177.807 248.533 176.825 247.826 175.568C247.139 174.291 246.795 172.818 246.795 171.148C246.795 169.478 247.129 168.015 247.797 166.758C248.484 165.481 249.437 164.499 250.655 163.811C251.893 163.124 253.307 162.78 254.898 162.78C256.43 162.78 257.796 163.114 258.994 163.782C260.192 164.45 261.125 165.393 261.793 166.61C262.461 167.809 262.795 169.194 262.795 170.765ZM259.288 169.704C259.269 168.467 258.827 167.475 257.962 166.728C257.098 165.982 256.028 165.609 254.751 165.609C253.592 165.609 252.6 165.982 251.775 166.728C250.95 167.455 250.459 168.447 250.301 169.704H259.288ZM277.003 151.465L268.988 184.437H265.688L273.673 151.465H277.003ZM293.582 175.097H285.008L283.535 179.281H280.028L287.365 158.773H291.255L298.592 179.281H295.056L293.582 175.097ZM292.64 172.356L289.31 162.839L285.951 172.356H292.64ZM305.141 158.802V179.281H301.782V158.802H305.141Z" fill="#8800FF"/>
</svg>
