<svg width="353" height="338" viewBox="0 0 353 338" fill="none" xmlns="http://www.w3.org/2000/svg">
<path d="M264.257 0.208008V46.588H144.818V120.057H87.3557V0.208008H264.257Z" fill="#520099"/>
<path d="M12.827 158.553V161.293H4.13463V167.333H10.9117V170.074H4.13463V179.031H0.775529V158.553H12.827ZM19.2991 165.153C19.7902 164.328 20.4385 163.689 21.2439 163.238C22.0689 162.766 23.0413 162.53 24.161 162.53V166.007H23.3065C21.9903 166.007 20.9885 166.341 20.301 167.009C19.6331 167.677 19.2991 168.836 19.2991 170.486V179.031H15.94V162.796H19.2991V165.153ZM34.291 179.296C32.7588 179.296 31.3739 178.953 30.1363 178.265C28.8988 177.558 27.9264 176.576 27.2192 175.319C26.512 174.042 26.1584 172.568 26.1584 170.899C26.1584 169.249 26.5218 167.785 27.2487 166.508C27.9755 165.231 28.9675 164.249 30.2247 163.562C31.4819 162.874 32.8865 162.53 34.4383 162.53C35.9902 162.53 37.3947 162.874 38.6519 163.562C39.9091 164.249 40.9011 165.231 41.628 166.508C42.3548 167.785 42.7182 169.249 42.7182 170.899C42.7182 172.549 42.345 174.012 41.5985 175.289C40.852 176.566 39.8305 177.558 38.5341 178.265C37.2572 178.953 35.8428 179.296 34.291 179.296ZM34.291 176.379C35.1553 176.379 35.9607 176.173 36.7072 175.761C37.4733 175.348 38.0921 174.729 38.5635 173.904C39.035 173.079 39.2707 172.077 39.2707 170.899C39.2707 169.72 39.0448 168.728 38.593 167.923C38.1412 167.098 37.542 166.479 36.7956 166.066C36.0491 165.654 35.2437 165.448 34.3794 165.448C33.5151 165.448 32.7097 165.654 31.9632 166.066C31.2364 166.479 30.6569 167.098 30.2247 167.923C29.7925 168.728 29.5765 169.72 29.5765 170.899C29.5765 172.647 30.0185 174.002 30.9024 174.965C31.806 175.908 32.9356 176.379 34.291 176.379ZM54.2303 162.53C55.5072 162.53 56.6465 162.796 57.6484 163.326C58.6698 163.856 59.4654 164.642 60.0351 165.683C60.6047 166.724 60.8896 167.982 60.8896 169.455V179.031H57.56V169.956C57.56 168.502 57.1965 167.392 56.4697 166.626C55.7429 165.84 54.7509 165.448 53.4937 165.448C52.2365 165.448 51.2346 165.84 50.4882 166.626C49.7613 167.392 49.3979 168.502 49.3979 169.956V179.031H46.0388V162.796H49.3979V164.652C49.948 163.984 50.6453 163.464 51.49 163.09C52.3543 162.717 53.2678 162.53 54.2303 162.53ZM69.0933 165.536V174.523C69.0933 175.132 69.2308 175.574 69.5058 175.849C69.8004 176.104 70.2915 176.232 70.9791 176.232H73.0417V179.031H70.3898C68.8772 179.031 67.7182 178.678 66.9128 177.97C66.1074 177.263 65.7047 176.114 65.7047 174.523V165.536H63.7894V162.796H65.7047V158.759H69.0933V162.796H73.0417V165.536H69.0933ZM88.6017 166.95V169.779H76.4912V166.95H88.6017ZM96.7331 161.263V167.274H103.805V170.015H96.7331V176.291H104.689V179.031H93.374V158.523H104.689V161.263H96.7331ZM117.018 162.53C118.295 162.53 119.434 162.796 120.436 163.326C121.457 163.856 122.253 164.642 122.822 165.683C123.392 166.724 123.677 167.982 123.677 169.455V179.031H120.347V169.956C120.347 168.502 119.984 167.392 119.257 166.626C118.53 165.84 117.538 165.448 116.281 165.448C115.024 165.448 114.022 165.84 113.276 166.626C112.549 167.392 112.185 168.502 112.185 169.956V179.031H108.826V162.796H112.185V164.652C112.735 163.984 113.433 163.464 114.277 163.09C115.142 162.717 116.055 162.53 117.018 162.53ZM126.842 170.84C126.842 169.209 127.176 167.766 127.844 166.508C128.531 165.251 129.455 164.279 130.614 163.591C131.792 162.884 133.099 162.53 134.533 162.53C135.593 162.53 136.634 162.766 137.656 163.238C138.697 163.689 139.522 164.298 140.131 165.064V157.227H143.52V179.031H140.131V176.586C139.581 177.371 138.815 178.02 137.833 178.53C136.87 179.041 135.76 179.296 134.503 179.296C133.089 179.296 131.792 178.943 130.614 178.236C129.455 177.509 128.531 176.507 127.844 175.23C127.176 173.934 126.842 172.47 126.842 170.84ZM140.131 170.899C140.131 169.779 139.895 168.807 139.424 167.982C138.972 167.157 138.373 166.528 137.626 166.096C136.88 165.664 136.075 165.448 135.21 165.448C134.346 165.448 133.541 165.664 132.794 166.096C132.048 166.508 131.439 167.127 130.967 167.952C130.515 168.758 130.289 169.72 130.289 170.84C130.289 171.959 130.515 172.942 130.967 173.786C131.439 174.631 132.048 175.279 132.794 175.731C133.56 176.163 134.366 176.379 135.21 176.379C136.075 176.379 136.88 176.163 137.626 175.731C138.373 175.299 138.972 174.67 139.424 173.845C139.895 173.001 140.131 172.018 140.131 170.899ZM162.275 158.553C164.455 158.553 166.36 158.975 167.991 159.82C169.641 160.645 170.908 161.843 171.792 163.414C172.696 164.966 173.147 166.783 173.147 168.866C173.147 170.948 172.696 172.755 171.792 174.287C170.908 175.819 169.641 176.998 167.991 177.823C166.36 178.629 164.455 179.031 162.275 179.031H155.586V158.553H162.275ZM162.275 176.291C164.671 176.291 166.508 175.643 167.785 174.346C169.062 173.05 169.7 171.223 169.7 168.866C169.7 166.489 169.062 164.632 167.785 163.297C166.508 161.961 164.671 161.293 162.275 161.293H158.945V176.291H162.275ZM191.357 170.516C191.357 171.125 191.318 171.675 191.239 172.166H178.834C178.932 173.462 179.413 174.503 180.278 175.289C181.142 176.075 182.203 176.468 183.46 176.468C185.267 176.468 186.544 175.711 187.291 174.199H190.915C190.424 175.692 189.53 176.92 188.233 177.882C186.957 178.825 185.365 179.296 183.46 179.296C181.908 179.296 180.513 178.953 179.276 178.265C178.058 177.558 177.095 176.576 176.388 175.319C175.701 174.042 175.357 172.568 175.357 170.899C175.357 169.229 175.691 167.766 176.359 166.508C177.046 165.231 177.999 164.249 179.217 163.562C180.454 162.874 181.869 162.53 183.46 162.53C184.992 162.53 186.357 162.864 187.556 163.532C188.754 164.2 189.687 165.143 190.355 166.361C191.023 167.559 191.357 168.944 191.357 170.516ZM187.85 169.455C187.831 168.217 187.389 167.225 186.524 166.479C185.66 165.732 184.59 165.359 183.313 165.359C182.154 165.359 181.162 165.732 180.337 166.479C179.512 167.206 179.02 168.198 178.863 169.455H187.85ZM200.939 176.026L205.535 162.796H209.101L202.913 179.031H198.906L192.747 162.796H196.342L200.939 176.026ZM226.52 170.516C226.52 171.125 226.481 171.675 226.402 172.166H213.997C214.095 173.462 214.577 174.503 215.441 175.289C216.305 176.075 217.366 176.468 218.623 176.468C220.43 176.468 221.707 175.711 222.454 174.199H226.078C225.587 175.692 224.693 176.92 223.397 177.882C222.12 178.825 220.529 179.296 218.623 179.296C217.071 179.296 215.677 178.953 214.439 178.265C213.221 177.558 212.259 176.576 211.551 175.319C210.864 174.042 210.52 172.568 210.52 170.899C210.52 169.229 210.854 167.766 211.522 166.508C212.21 165.231 213.162 164.249 214.38 163.562C215.618 162.874 217.032 162.53 218.623 162.53C220.155 162.53 221.521 162.864 222.719 163.532C223.917 164.2 224.85 165.143 225.518 166.361C226.186 167.559 226.52 168.944 226.52 170.516ZM223.014 169.455C222.994 168.217 222.552 167.225 221.688 166.479C220.823 165.732 219.753 165.359 218.476 165.359C217.317 165.359 216.325 165.732 215.5 166.479C214.675 167.206 214.184 168.198 214.027 169.455H223.014ZM233.185 157.227V179.031H229.826V157.227H233.185ZM244.637 179.296C243.105 179.296 241.72 178.953 240.483 178.265C239.245 177.558 238.273 176.576 237.566 175.319C236.858 174.042 236.505 172.568 236.505 170.899C236.505 169.249 236.868 167.785 237.595 166.508C238.322 165.231 239.314 164.249 240.571 163.562C241.828 162.874 243.233 162.53 244.785 162.53C246.337 162.53 247.741 162.874 248.998 163.562C250.255 164.249 251.248 165.231 251.974 166.508C252.701 167.785 253.065 169.249 253.065 170.899C253.065 172.549 252.691 174.012 251.945 175.289C251.198 176.566 250.177 177.558 248.88 178.265C247.604 178.953 246.189 179.296 244.637 179.296ZM244.637 176.379C245.502 176.379 246.307 176.173 247.054 175.761C247.82 175.348 248.438 174.729 248.91 173.904C249.381 173.079 249.617 172.077 249.617 170.899C249.617 169.72 249.391 168.728 248.939 167.923C248.488 167.098 247.888 166.479 247.142 166.066C246.395 165.654 245.59 165.448 244.726 165.448C243.861 165.448 243.056 165.654 242.31 166.066C241.583 166.479 241.003 167.098 240.571 167.923C240.139 168.728 239.923 169.72 239.923 170.899C239.923 172.647 240.365 174.002 241.249 174.965C242.152 175.908 243.282 176.379 244.637 176.379ZM259.744 165.182C260.314 164.436 261.09 163.807 262.072 163.297C263.054 162.786 264.164 162.53 265.402 162.53C266.816 162.53 268.103 162.884 269.262 163.591C270.44 164.279 271.364 165.251 272.032 166.508C272.699 167.766 273.033 169.209 273.033 170.84C273.033 172.47 272.699 173.934 272.032 175.23C271.364 176.507 270.44 177.509 269.262 178.236C268.103 178.943 266.816 179.296 265.402 179.296C264.164 179.296 263.064 179.051 262.102 178.56C261.139 178.049 260.353 177.42 259.744 176.674V186.751H256.385V162.796H259.744V165.182ZM269.615 170.84C269.615 169.72 269.38 168.758 268.908 167.952C268.456 167.127 267.847 166.508 267.081 166.096C266.335 165.664 265.529 165.448 264.665 165.448C263.82 165.448 263.015 165.664 262.249 166.096C261.502 166.528 260.893 167.157 260.422 167.982C259.97 168.807 259.744 169.779 259.744 170.899C259.744 172.018 259.97 173.001 260.422 173.845C260.893 174.67 261.502 175.299 262.249 175.731C263.015 176.163 263.82 176.379 264.665 176.379C265.529 176.379 266.335 176.163 267.081 175.731C267.847 175.279 268.456 174.631 268.908 173.786C269.38 172.942 269.615 171.959 269.615 170.84ZM296.009 162.53C297.286 162.53 298.425 162.796 299.427 163.326C300.448 163.856 301.244 164.642 301.814 165.683C302.403 166.724 302.698 167.982 302.698 169.455V179.031H299.368V169.956C299.368 168.502 299.004 167.392 298.278 166.626C297.551 165.84 296.559 165.448 295.302 165.448C294.044 165.448 293.043 165.84 292.296 166.626C291.569 167.392 291.206 168.502 291.206 169.956V179.031H287.876V169.956C287.876 168.502 287.513 167.392 286.786 166.626C286.059 165.84 285.067 165.448 283.81 165.448C282.553 165.448 281.551 165.84 280.804 166.626C280.078 167.392 279.714 168.502 279.714 169.956V179.031H276.355V162.796H279.714V164.652C280.264 163.984 280.962 163.464 281.806 163.09C282.651 162.717 283.555 162.53 284.517 162.53C285.814 162.53 286.973 162.805 287.994 163.355C289.016 163.905 289.801 164.701 290.351 165.742C290.842 164.76 291.609 163.984 292.65 163.414C293.691 162.825 294.811 162.53 296.009 162.53ZM321.852 170.516C321.852 171.125 321.813 171.675 321.734 172.166H309.329C309.427 173.462 309.909 174.503 310.773 175.289C311.637 176.075 312.698 176.468 313.955 176.468C315.763 176.468 317.039 175.711 317.786 174.199H321.41C320.919 175.692 320.025 176.92 318.729 177.882C317.452 178.825 315.861 179.296 313.955 179.296C312.403 179.296 311.009 178.953 309.771 178.265C308.553 177.558 307.591 176.576 306.883 175.319C306.196 174.042 305.852 172.568 305.852 170.899C305.852 169.229 306.186 167.766 306.854 166.508C307.542 165.231 308.494 164.249 309.712 163.562C310.95 162.874 312.364 162.53 313.955 162.53C315.487 162.53 316.853 162.864 318.051 163.532C319.249 164.2 320.182 165.143 320.85 166.361C321.518 167.559 321.852 168.944 321.852 170.516ZM318.346 169.455C318.326 168.217 317.884 167.225 317.02 166.479C316.155 165.732 315.085 165.359 313.808 165.359C312.649 165.359 311.657 165.732 310.832 166.479C310.007 167.206 309.516 168.198 309.359 169.455H318.346ZM333.349 162.53C334.626 162.53 335.765 162.796 336.767 163.326C337.789 163.856 338.584 164.642 339.154 165.683C339.724 166.724 340.009 167.982 340.009 169.455V179.031H336.679V169.956C336.679 168.502 336.316 167.392 335.589 166.626C334.862 165.84 333.87 165.448 332.613 165.448C331.355 165.448 330.354 165.84 329.607 166.626C328.88 167.392 328.517 168.502 328.517 169.956V179.031H325.158V162.796H328.517V164.652C329.067 163.984 329.764 163.464 330.609 163.09C331.473 162.717 332.387 162.53 333.349 162.53ZM348.212 165.536V174.523C348.212 175.132 348.35 175.574 348.625 175.849C348.919 176.104 349.411 176.232 350.098 176.232H352.161V179.031H349.509C347.996 179.031 346.837 178.678 346.032 177.97C345.226 177.263 344.824 176.114 344.824 174.523V165.536H342.908V162.796H344.824V158.759H348.212V162.796H352.161V165.536H348.212Z" fill="#8800FF"/>
<path d="M147.491 218.005L204.121 218.005L204.121 337.444L147.491 337.444L147.491 218.005Z" fill="#520099"/>
</svg>
