<svg width="312" height="338" viewBox="0 0 312 338" fill="none" xmlns="http://www.w3.org/2000/svg">
<path d="M311.64 107.274C299.335 76.3012 278.121 49.6728 250.683 30.7561C223.244 11.8395 190.812 1.48417 157.488 0.999743C124.164 0.515313 91.4442 9.9235 63.4671 28.0346C35.49 46.1456 13.5118 72.1462 0.311646 102.748L61.7225 129.238C69.6835 110.782 82.9386 95.1006 99.8116 84.1778C116.685 73.255 136.418 67.5809 156.516 67.873C176.613 68.1652 196.173 74.4105 212.721 85.8191C229.27 97.2278 226.806 88.5942 234.228 107.274L311.64 107.274Z" fill="#520099"/>
<path d="M194.32 150.622C193.789 149.601 193.052 148.835 192.11 148.324C191.167 147.794 190.076 147.529 188.839 147.529C187.483 147.529 186.275 147.833 185.215 148.442C184.154 149.051 183.319 149.915 182.71 151.035C182.121 152.155 181.826 153.451 181.826 154.924C181.826 156.398 182.121 157.704 182.71 158.843C183.319 159.963 184.154 160.827 185.215 161.436C186.275 162.045 187.483 162.35 188.839 162.35C190.666 162.35 192.149 161.839 193.288 160.818C194.428 159.796 195.125 158.411 195.38 156.663H187.69V153.982H198.975V156.604C198.759 158.195 198.189 159.659 197.266 160.994C196.362 162.33 195.174 163.401 193.701 164.206C192.247 164.992 190.626 165.385 188.839 165.385C186.914 165.385 185.156 164.943 183.565 164.059C181.973 163.155 180.706 161.908 179.763 160.317C178.84 158.726 178.379 156.928 178.379 154.924C178.379 152.921 178.84 151.123 179.763 149.532C180.706 147.941 181.973 146.704 183.565 145.82C185.175 144.916 186.933 144.464 188.839 144.464C191.019 144.464 192.954 145.004 194.644 146.085C196.353 147.145 197.59 148.658 198.356 150.622H194.32ZM205.647 151.33C206.138 150.505 206.787 149.866 207.592 149.414C208.417 148.943 209.389 148.707 210.509 148.707V152.184H209.655C208.338 152.184 207.337 152.518 206.649 153.186C205.981 153.854 205.647 155.013 205.647 156.663V165.208H202.288V148.972H205.647V151.33ZM212.477 157.017C212.477 155.386 212.811 153.942 213.479 152.685C214.166 151.428 215.09 150.455 216.249 149.768C217.427 149.061 218.724 148.707 220.138 148.707C221.415 148.707 222.525 148.963 223.468 149.473C224.43 149.964 225.196 150.583 225.766 151.33V148.972H229.155V165.208H225.766V162.792C225.196 163.558 224.421 164.196 223.438 164.707C222.456 165.218 221.336 165.473 220.079 165.473C218.685 165.473 217.408 165.12 216.249 164.412C215.09 163.686 214.166 162.684 213.479 161.407C212.811 160.11 212.477 158.647 212.477 157.017ZM225.766 157.075C225.766 155.956 225.53 154.983 225.059 154.158C224.607 153.333 224.008 152.705 223.262 152.273C222.515 151.84 221.71 151.624 220.845 151.624C219.981 151.624 219.176 151.84 218.429 152.273C217.683 152.685 217.074 153.304 216.602 154.129C216.15 154.934 215.925 155.897 215.925 157.017C215.925 158.136 216.15 159.118 216.602 159.963C217.074 160.808 217.683 161.456 218.429 161.908C219.195 162.34 220.001 162.556 220.845 162.556C221.71 162.556 222.515 162.34 223.262 161.908C224.008 161.476 224.607 160.847 225.059 160.022C225.53 159.177 225.766 158.195 225.766 157.075ZM236.926 151.359C237.496 150.613 238.271 149.984 239.254 149.473C240.236 148.963 241.346 148.707 242.583 148.707C243.998 148.707 245.284 149.061 246.443 149.768C247.622 150.455 248.545 151.428 249.213 152.685C249.881 153.942 250.215 155.386 250.215 157.017C250.215 158.647 249.881 160.11 249.213 161.407C248.545 162.684 247.622 163.686 246.443 164.412C245.284 165.12 243.998 165.473 242.583 165.473C241.346 165.473 240.246 165.228 239.283 164.737C238.321 164.226 237.535 163.597 236.926 162.851V172.928H233.567V148.972H236.926V151.359ZM246.797 157.017C246.797 155.897 246.561 154.934 246.09 154.129C245.638 153.304 245.029 152.685 244.263 152.273C243.516 151.84 242.711 151.624 241.847 151.624C241.002 151.624 240.197 151.84 239.43 152.273C238.684 152.705 238.075 153.333 237.604 154.158C237.152 154.983 236.926 155.956 236.926 157.075C236.926 158.195 237.152 159.177 237.604 160.022C238.075 160.847 238.684 161.476 239.43 161.908C240.197 162.34 241.002 162.556 241.847 162.556C242.711 162.556 243.516 162.34 244.263 161.908C245.029 161.456 245.638 160.808 246.09 159.963C246.561 159.118 246.797 158.136 246.797 157.017ZM261.934 148.707C263.172 148.707 264.272 148.972 265.235 149.503C266.217 150.033 266.983 150.819 267.533 151.86C268.103 152.901 268.387 154.158 268.387 155.632V165.208H265.058V156.133C265.058 154.679 264.694 153.569 263.968 152.803C263.241 152.017 262.249 151.624 260.992 151.624C259.734 151.624 258.732 152.017 257.986 152.803C257.259 153.569 256.896 154.679 256.896 156.133V165.208H253.537V143.403H256.896V150.858C257.465 150.171 258.182 149.64 259.047 149.267C259.931 148.894 260.893 148.707 261.934 148.707ZM274.381 146.821C273.772 146.821 273.261 146.615 272.849 146.203C272.436 145.79 272.23 145.279 272.23 144.67C272.23 144.061 272.436 143.551 272.849 143.138C273.261 142.726 273.772 142.519 274.381 142.519C274.971 142.519 275.471 142.726 275.884 143.138C276.296 143.551 276.503 144.061 276.503 144.67C276.503 145.279 276.296 145.79 275.884 146.203C275.471 146.615 274.971 146.821 274.381 146.821ZM276.031 148.972V165.208H272.672V148.972H276.031ZM279.322 157.075C279.322 155.406 279.656 153.942 280.324 152.685C281.011 151.408 281.954 150.426 283.152 149.738C284.351 149.051 285.726 148.707 287.278 148.707C289.242 148.707 290.863 149.179 292.139 150.122C293.436 151.045 294.31 152.371 294.762 154.099H291.138C290.843 153.294 290.371 152.665 289.723 152.214C289.075 151.762 288.26 151.536 287.278 151.536C285.902 151.536 284.802 152.027 283.977 153.009C283.172 153.972 282.769 155.327 282.769 157.075C282.769 158.824 283.172 160.189 283.977 161.171C284.802 162.153 285.902 162.644 287.278 162.644C289.222 162.644 290.509 161.79 291.138 160.081H294.762C294.29 161.731 293.406 163.047 292.11 164.029C290.813 164.992 289.203 165.473 287.278 165.473C285.726 165.473 284.351 165.129 283.152 164.442C281.954 163.735 281.011 162.753 280.324 161.495C279.656 160.218 279.322 158.745 279.322 157.075ZM304.003 165.473C302.726 165.473 301.577 165.247 300.555 164.795C299.553 164.324 298.758 163.695 298.168 162.91C297.579 162.104 297.265 161.21 297.225 160.228H300.702C300.761 160.916 301.085 161.495 301.675 161.967C302.284 162.419 303.04 162.644 303.944 162.644C304.887 162.644 305.613 162.468 306.124 162.114C306.654 161.741 306.92 161.269 306.92 160.7C306.92 160.091 306.625 159.639 306.036 159.344C305.466 159.05 304.553 158.726 303.295 158.372C302.077 158.038 301.085 157.714 300.319 157.4C299.553 157.085 298.885 156.604 298.316 155.956C297.766 155.308 297.491 154.453 297.491 153.392C297.491 152.528 297.746 151.742 298.257 151.035C298.767 150.308 299.494 149.738 300.437 149.326C301.4 148.913 302.5 148.707 303.737 148.707C305.584 148.707 307.067 149.179 308.187 150.122C309.326 151.045 309.935 152.312 310.014 153.923H306.654C306.596 153.196 306.301 152.616 305.771 152.184C305.24 151.752 304.523 151.536 303.62 151.536C302.736 151.536 302.058 151.703 301.586 152.037C301.115 152.371 300.879 152.813 300.879 153.363C300.879 153.795 301.036 154.158 301.351 154.453C301.665 154.748 302.048 154.983 302.5 155.16C302.952 155.317 303.62 155.524 304.503 155.779C305.682 156.093 306.645 156.417 307.391 156.751C308.157 157.066 308.815 157.537 309.365 158.166C309.915 158.794 310.2 159.629 310.22 160.67C310.22 161.594 309.964 162.419 309.454 163.145C308.943 163.872 308.216 164.442 307.273 164.854C306.35 165.267 305.26 165.473 304.003 165.473ZM218.847 172.729C221.027 172.729 222.933 173.152 224.563 173.996C226.213 174.821 227.48 176.02 228.364 177.591C229.268 179.143 229.72 180.96 229.72 183.042C229.72 185.125 229.268 186.932 228.364 188.464C227.48 189.996 226.213 191.175 224.563 192C222.933 192.805 221.027 193.208 218.847 193.208H212.158V172.729H218.847ZM218.847 190.468C221.243 190.468 223.08 189.819 224.357 188.523C225.634 187.226 226.272 185.4 226.272 183.042C226.272 180.665 225.634 178.809 224.357 177.473C223.08 176.138 221.243 175.47 218.847 175.47H215.517V190.468H218.847ZM247.929 184.692C247.929 185.301 247.89 185.851 247.811 186.342H235.406C235.504 187.639 235.986 188.68 236.85 189.466C237.714 190.252 238.775 190.644 240.032 190.644C241.839 190.644 243.116 189.888 243.863 188.376H247.487C246.996 189.869 246.102 191.096 244.806 192.059C243.529 193.002 241.938 193.473 240.032 193.473C238.48 193.473 237.086 193.129 235.848 192.442C234.63 191.735 233.668 190.753 232.96 189.495C232.273 188.218 231.929 186.745 231.929 185.075C231.929 183.406 232.263 181.942 232.931 180.685C233.618 179.408 234.571 178.426 235.789 177.738C237.027 177.051 238.441 176.707 240.032 176.707C241.564 176.707 242.93 177.041 244.128 177.709C245.326 178.377 246.259 179.32 246.927 180.538C247.595 181.736 247.929 183.121 247.929 184.692ZM244.423 183.632C244.403 182.394 243.961 181.402 243.097 180.656C242.232 179.909 241.162 179.536 239.885 179.536C238.726 179.536 237.734 179.909 236.909 180.656C236.084 181.382 235.593 182.374 235.436 183.632H244.423ZM257.128 193.473C255.851 193.473 254.702 193.247 253.68 192.795C252.679 192.324 251.883 191.695 251.294 190.91C250.704 190.104 250.39 189.21 250.351 188.228H253.828C253.887 188.916 254.211 189.495 254.8 189.967C255.409 190.419 256.165 190.644 257.069 190.644C258.012 190.644 258.739 190.468 259.249 190.114C259.78 189.741 260.045 189.269 260.045 188.7C260.045 188.091 259.75 187.639 259.161 187.344C258.591 187.05 257.678 186.726 256.421 186.372C255.203 186.038 254.211 185.714 253.445 185.4C252.679 185.085 252.011 184.604 251.441 183.956C250.891 183.308 250.616 182.453 250.616 181.392C250.616 180.528 250.871 179.742 251.382 179.035C251.893 178.308 252.62 177.738 253.562 177.326C254.525 176.913 255.625 176.707 256.863 176.707C258.709 176.707 260.192 177.179 261.312 178.122C262.451 179.045 263.06 180.312 263.139 181.923H259.78C259.721 181.196 259.426 180.616 258.896 180.184C258.365 179.752 257.648 179.536 256.745 179.536C255.861 179.536 255.183 179.703 254.712 180.037C254.24 180.371 254.004 180.813 254.004 181.363C254.004 181.795 254.162 182.158 254.476 182.453C254.79 182.748 255.173 182.983 255.625 183.16C256.077 183.317 256.745 183.524 257.629 183.779C258.807 184.093 259.77 184.417 260.516 184.751C261.283 185.066 261.941 185.537 262.491 186.166C263.041 186.794 263.325 187.629 263.345 188.67C263.345 189.594 263.09 190.419 262.579 191.145C262.068 191.872 261.341 192.442 260.399 192.854C259.475 193.267 258.385 193.473 257.128 193.473ZM268.684 174.821C268.075 174.821 267.564 174.615 267.151 174.203C266.739 173.79 266.533 173.279 266.533 172.67C266.533 172.061 266.739 171.551 267.151 171.138C267.564 170.726 268.075 170.519 268.684 170.519C269.273 170.519 269.774 170.726 270.186 171.138C270.599 171.551 270.805 172.061 270.805 172.67C270.805 173.279 270.599 173.79 270.186 174.203C269.774 174.615 269.273 174.821 268.684 174.821ZM270.334 176.972V193.208H266.975V176.972H270.334ZM281.285 176.707C282.543 176.707 283.652 176.963 284.615 177.473C285.597 177.964 286.363 178.583 286.913 179.33V176.972H290.302V193.473C290.302 194.966 289.988 196.292 289.359 197.451C288.73 198.63 287.817 199.553 286.619 200.221C285.44 200.889 284.026 201.223 282.376 201.223C280.176 201.223 278.349 200.702 276.895 199.661C275.441 198.64 274.616 197.245 274.42 195.477H277.749C278.005 196.322 278.545 196.999 279.37 197.51C280.215 198.04 281.217 198.306 282.376 198.306C283.731 198.306 284.821 197.893 285.646 197.068C286.491 196.243 286.913 195.045 286.913 193.473V190.762C286.344 191.528 285.568 192.177 284.586 192.707C283.623 193.218 282.523 193.473 281.285 193.473C279.871 193.473 278.575 193.12 277.396 192.412C276.237 191.686 275.314 190.684 274.626 189.407C273.958 188.11 273.624 186.647 273.624 185.017C273.624 183.386 273.958 181.942 274.626 180.685C275.314 179.428 276.237 178.455 277.396 177.768C278.575 177.061 279.871 176.707 281.285 176.707ZM286.913 185.075C286.913 183.956 286.678 182.983 286.206 182.158C285.754 181.333 285.155 180.705 284.409 180.273C283.662 179.84 282.857 179.624 281.993 179.624C281.128 179.624 280.323 179.84 279.576 180.273C278.83 180.685 278.221 181.304 277.749 182.129C277.298 182.934 277.072 183.897 277.072 185.017C277.072 186.136 277.298 187.118 277.749 187.963C278.221 188.808 278.83 189.456 279.576 189.908C280.342 190.34 281.148 190.556 281.993 190.556C282.857 190.556 283.662 190.34 284.409 189.908C285.155 189.476 285.754 188.847 286.206 188.022C286.678 187.177 286.913 186.195 286.913 185.075ZM302.905 176.707C304.182 176.707 305.322 176.972 306.323 177.503C307.345 178.033 308.14 178.819 308.71 179.86C309.28 180.901 309.565 182.158 309.565 183.632V193.208H306.235V184.133C306.235 182.679 305.872 181.569 305.145 180.803C304.418 180.017 303.426 179.624 302.169 179.624C300.912 179.624 299.91 180.017 299.163 180.803C298.436 181.569 298.073 182.679 298.073 184.133V193.208H294.714V176.972H298.073V178.829C298.623 178.161 299.32 177.64 300.165 177.267C301.029 176.894 301.943 176.707 302.905 176.707Z" fill="#8800FF"/>
<path d="M0.306152 235.604C13.469 266.222 35.4156 292.249 63.3706 310.394C91.3257 328.539 124.034 337.987 157.358 337.544C190.683 337.1 223.127 326.784 250.589 307.901C278.051 289.017 299.297 262.415 311.639 231.457H234.764C227.322 250.123 229.238 241.384 212.68 252.77C196.122 264.155 176.56 270.375 156.467 270.643C136.374 270.91 116.653 265.214 99.7979 254.273C82.9426 243.333 69.71 227.64 61.7736 209.179L0.306152 235.604Z" fill="#520099"/>
</svg>
