<svg width="226" height="338" viewBox="0 0 226 338" fill="none" xmlns="http://www.w3.org/2000/svg">
<path d="M195.038 60.2274C195.038 70.6203 192.124 80.3637 186.295 89.4576C180.682 98.5514 171.723 105.882 159.418 111.45C147.329 117.017 132.001 119.801 113.436 119.801H75.5488H30.2141V0.0966797H113.436C130.922 0.0966797 145.818 2.69493 158.123 7.89141C170.428 13.0879 179.603 20.233 185.647 29.3269C191.908 38.4207 195.038 48.7209 195.038 60.2274ZM111.493 88.344C124.014 88.344 133.297 85.9314 139.341 81.1061C145.386 76.0952 148.408 69.1356 148.408 60.2274C148.408 41.2973 136.103 31.8323 111.493 31.8323H75.5488V88.344H111.493Z" fill="#520099"/>
<path d="M16.8039 164.601C16.8039 165.642 16.5583 166.624 16.0672 167.547C15.5761 168.471 14.7904 169.227 13.71 169.816C12.6296 170.386 11.2447 170.671 9.5553 170.671H5.84261V178.98H2.48351V158.501H9.5553C11.1268 158.501 12.4528 158.776 13.5332 159.326C14.6332 159.857 15.4484 160.584 15.9788 161.507C16.5289 162.43 16.8039 163.461 16.8039 164.601ZM9.5553 167.93C10.8321 167.93 11.7849 167.645 12.4135 167.076C13.0421 166.486 13.3564 165.661 13.3564 164.601C13.3564 162.361 12.0894 161.242 9.5553 161.242H5.84261V167.93H9.5553ZM23.3667 165.102C23.8578 164.277 24.506 163.638 25.3114 163.186C26.1365 162.715 27.1088 162.479 28.2285 162.479V165.956H27.374C26.0579 165.956 25.056 166.29 24.3685 166.958C23.7006 167.626 23.3667 168.785 23.3667 170.435V178.98H20.0076V162.744H23.3667V165.102ZM38.3585 179.245C36.8263 179.245 35.4414 178.901 34.2039 178.214C32.9663 177.507 31.9939 176.525 31.2868 175.267C30.5796 173.99 30.226 172.517 30.226 170.847C30.226 169.197 30.5894 167.734 31.3162 166.457C32.043 165.18 33.0351 164.198 34.2923 163.51C35.5495 162.823 36.954 162.479 38.5059 162.479C40.0577 162.479 41.4623 162.823 42.7195 163.51C43.9767 164.198 44.9687 165.18 45.6955 166.457C46.4223 167.734 46.7857 169.197 46.7857 170.847C46.7857 172.498 46.4125 173.961 45.666 175.238C44.9196 176.515 43.8981 177.507 42.6016 178.214C41.3248 178.901 39.9104 179.245 38.3585 179.245ZM38.3585 176.328C39.2229 176.328 40.0283 176.122 40.7747 175.709C41.5408 175.297 42.1596 174.678 42.6311 173.853C43.1025 173.028 43.3382 172.026 43.3382 170.847C43.3382 169.669 43.1123 168.677 42.6605 167.871C42.2087 167.046 41.6096 166.428 40.8631 166.015C40.1167 165.603 39.3113 165.396 38.4469 165.396C37.5826 165.396 36.7772 165.603 36.0307 166.015C35.3039 166.428 34.7244 167.046 34.2923 167.871C33.8601 168.677 33.644 169.669 33.644 170.847C33.644 172.596 34.086 173.951 34.97 174.914C35.8736 175.857 37.0031 176.328 38.3585 176.328ZM48.9867 170.788C48.9867 169.158 49.3206 167.714 49.9885 166.457C50.6761 165.2 51.5993 164.227 52.7583 163.54C53.9369 162.833 55.2433 162.479 56.6773 162.479C57.738 162.479 58.7791 162.715 59.8006 163.186C60.8417 163.638 61.6668 164.247 62.2757 165.013V157.175H65.6643V178.98H62.2757V176.534C61.7257 177.32 60.9596 177.968 59.9774 178.479C59.0149 178.99 57.905 179.245 56.6478 179.245C55.2334 179.245 53.9369 178.892 52.7583 178.184C51.5993 177.458 50.6761 176.456 49.9885 175.179C49.3206 173.882 48.9867 172.419 48.9867 170.788ZM62.2757 170.847C62.2757 169.728 62.04 168.755 61.5686 167.93C61.1168 167.105 60.5176 166.477 59.7712 166.045C59.0247 165.612 58.2193 165.396 57.355 165.396C56.4906 165.396 55.6852 165.612 54.9388 166.045C54.1923 166.457 53.5833 167.076 53.1119 167.901C52.6601 168.706 52.4342 169.669 52.4342 170.788C52.4342 171.908 52.6601 172.89 53.1119 173.735C53.5833 174.58 54.1923 175.228 54.9388 175.68C55.7049 176.112 56.5103 176.328 57.355 176.328C58.2193 176.328 59.0247 176.112 59.7712 175.68C60.5176 175.248 61.1168 174.619 61.5686 173.794C62.04 172.949 62.2757 171.967 62.2757 170.847ZM84.7798 162.744V178.98H81.4207V177.065C80.8903 177.733 80.1929 178.263 79.3286 178.656C78.4839 179.029 77.5803 179.216 76.6177 179.216C75.3409 179.216 74.1917 178.951 73.1703 178.42C72.1684 177.89 71.3728 177.104 70.7835 176.063C70.2139 175.022 69.929 173.765 69.929 172.291V162.744H73.2587V171.79C73.2587 173.244 73.6221 174.364 74.3489 175.149C75.0757 175.916 76.0677 176.299 77.3249 176.299C78.5821 176.299 79.5741 175.916 80.301 175.149C81.0474 174.364 81.4207 173.244 81.4207 171.79V162.744H84.7798ZM88.0921 170.847C88.0921 169.178 88.4261 167.714 89.094 166.457C89.7815 165.18 90.7244 164.198 91.9227 163.51C93.1209 162.823 94.496 162.479 96.0479 162.479C98.0123 162.479 99.6329 162.951 100.91 163.894C102.206 164.817 103.08 166.143 103.532 167.871H99.9079C99.6132 167.066 99.1418 166.437 98.4935 165.986C97.8453 165.534 97.0301 165.308 96.0479 165.308C94.6728 165.308 93.5728 165.799 92.7477 166.781C91.9423 167.744 91.5396 169.099 91.5396 170.847C91.5396 172.596 91.9423 173.961 92.7477 174.943C93.5728 175.925 94.6728 176.416 96.0479 176.416C97.9926 176.416 99.2793 175.562 99.9079 173.853H103.532C103.061 175.503 102.177 176.819 100.88 177.801C99.5838 178.764 97.973 179.245 96.0479 179.245C94.496 179.245 93.1209 178.901 91.9227 178.214C90.7244 177.507 89.7815 176.525 89.094 175.267C88.4261 173.99 88.0921 172.517 88.0921 170.847ZM110.799 165.485V174.472C110.799 175.081 110.936 175.523 111.211 175.798C111.506 176.053 111.997 176.181 112.685 176.181H114.747V178.98H112.095C110.583 178.98 109.424 178.626 108.618 177.919C107.813 177.212 107.41 176.063 107.41 174.472V165.485H105.495V162.744H107.41V158.708H110.799V162.744H114.747V165.485H110.799ZM132.186 158.501C134.366 158.501 136.272 158.924 137.902 159.768C139.552 160.593 140.819 161.792 141.703 163.363C142.607 164.915 143.059 166.732 143.059 168.814C143.059 170.897 142.607 172.704 141.703 174.236C140.819 175.768 139.552 176.947 137.902 177.772C136.272 178.577 134.366 178.98 132.186 178.98H125.497V158.501H132.186ZM132.186 176.24C134.583 176.24 136.419 175.591 137.696 174.295C138.973 172.998 139.611 171.172 139.611 168.814C139.611 166.437 138.973 164.581 137.696 163.245C136.419 161.909 134.583 161.242 132.186 161.242H128.856V176.24H132.186ZM161.268 170.464C161.268 171.073 161.229 171.623 161.15 172.114H148.745C148.844 173.411 149.325 174.452 150.189 175.238C151.053 176.024 152.114 176.416 153.371 176.416C155.179 176.416 156.456 175.66 157.202 174.148H160.826C160.335 175.641 159.441 176.868 158.145 177.831C156.868 178.774 155.277 179.245 153.371 179.245C151.82 179.245 150.425 178.901 149.187 178.214C147.969 177.507 147.007 176.525 146.3 175.267C145.612 173.99 145.268 172.517 145.268 170.847C145.268 169.178 145.602 167.714 146.27 166.457C146.958 165.18 147.91 164.198 149.128 163.51C150.366 162.823 151.78 162.479 153.371 162.479C154.904 162.479 156.269 162.813 157.467 163.481C158.665 164.149 159.599 165.092 160.266 166.31C160.934 167.508 161.268 168.893 161.268 170.464ZM157.762 169.404C157.742 168.166 157.3 167.174 156.436 166.428C155.572 165.681 154.501 165.308 153.224 165.308C152.065 165.308 151.073 165.681 150.248 166.428C149.423 167.154 148.932 168.146 148.775 169.404H157.762ZM170.467 179.245C169.19 179.245 168.041 179.019 167.02 178.567C166.018 178.096 165.222 177.467 164.633 176.682C164.044 175.876 163.729 174.982 163.69 174H167.167C167.226 174.688 167.55 175.267 168.139 175.739C168.748 176.191 169.505 176.416 170.408 176.416C171.351 176.416 172.078 176.24 172.589 175.886C173.119 175.513 173.384 175.041 173.384 174.472C173.384 173.863 173.09 173.411 172.5 173.116C171.931 172.822 171.017 172.498 169.76 172.144C168.542 171.81 167.55 171.486 166.784 171.172C166.018 170.857 165.35 170.376 164.78 169.728C164.23 169.079 163.955 168.225 163.955 167.164C163.955 166.3 164.211 165.514 164.721 164.807C165.232 164.08 165.959 163.51 166.902 163.098C167.864 162.685 168.964 162.479 170.202 162.479C172.048 162.479 173.532 162.951 174.651 163.894C175.791 164.817 176.4 166.084 176.478 167.695H173.119C173.06 166.968 172.765 166.388 172.235 165.956C171.705 165.524 170.988 165.308 170.084 165.308C169.2 165.308 168.522 165.475 168.051 165.809C167.579 166.143 167.344 166.585 167.344 167.135C167.344 167.567 167.501 167.93 167.815 168.225C168.129 168.52 168.513 168.755 168.964 168.932C169.416 169.089 170.084 169.296 170.968 169.551C172.147 169.865 173.109 170.189 173.856 170.523C174.622 170.838 175.28 171.309 175.83 171.938C176.38 172.566 176.665 173.401 176.684 174.442C176.684 175.366 176.429 176.191 175.918 176.917C175.408 177.644 174.681 178.214 173.738 178.626C172.815 179.039 171.724 179.245 170.467 179.245ZM182.023 160.593C181.414 160.593 180.903 160.387 180.491 159.975C180.078 159.562 179.872 159.051 179.872 158.442C179.872 157.833 180.078 157.323 180.491 156.91C180.903 156.498 181.414 156.291 182.023 156.291C182.612 156.291 183.113 156.498 183.526 156.91C183.938 157.323 184.145 157.833 184.145 158.442C184.145 159.051 183.938 159.562 183.526 159.975C183.113 160.387 182.612 160.593 182.023 160.593ZM183.673 162.744V178.98H180.314V162.744H183.673ZM194.625 162.479C195.882 162.479 196.992 162.735 197.954 163.245C198.936 163.736 199.703 164.355 200.253 165.102V162.744H203.641V179.245C203.641 180.738 203.327 182.064 202.698 183.223C202.07 184.402 201.156 185.325 199.958 185.993C198.779 186.661 197.365 186.995 195.715 186.995C193.515 186.995 191.688 186.474 190.234 185.433C188.781 184.412 187.956 183.017 187.759 181.249H191.089C191.344 182.094 191.884 182.771 192.709 183.282C193.554 183.812 194.556 184.078 195.715 184.078C197.07 184.078 198.161 183.665 198.986 182.84C199.83 182.015 200.253 180.817 200.253 179.245V176.534C199.683 177.3 198.907 177.949 197.925 178.479C196.962 178.99 195.862 179.245 194.625 179.245C193.21 179.245 191.914 178.892 190.735 178.184C189.576 177.458 188.653 176.456 187.965 175.179C187.297 173.882 186.964 172.419 186.964 170.788C186.964 169.158 187.297 167.714 187.965 166.457C188.653 165.2 189.576 164.227 190.735 163.54C191.914 162.833 193.21 162.479 194.625 162.479ZM200.253 170.847C200.253 169.728 200.017 168.755 199.545 167.93C199.094 167.105 198.494 166.477 197.748 166.045C197.002 165.612 196.196 165.396 195.332 165.396C194.468 165.396 193.662 165.612 192.916 166.045C192.169 166.457 191.56 167.076 191.089 167.901C190.637 168.706 190.411 169.669 190.411 170.788C190.411 171.908 190.637 172.89 191.089 173.735C191.56 174.58 192.169 175.228 192.916 175.68C193.682 176.112 194.487 176.328 195.332 176.328C196.196 176.328 197.002 176.112 197.748 175.68C198.494 175.248 199.094 174.619 199.545 173.794C200.017 172.949 200.253 171.967 200.253 170.847ZM216.245 162.479C217.522 162.479 218.661 162.744 219.663 163.275C220.684 163.805 221.48 164.591 222.049 165.632C222.619 166.673 222.904 167.93 222.904 169.404V178.98H219.574V169.905C219.574 168.451 219.211 167.341 218.484 166.575C217.757 165.789 216.765 165.396 215.508 165.396C214.251 165.396 213.249 165.789 212.503 166.575C211.776 167.341 211.412 168.451 211.412 169.905V178.98H208.053V162.744H211.412V164.601C211.962 163.933 212.66 163.412 213.504 163.039C214.369 162.666 215.282 162.479 216.245 162.479Z" fill="#8800FF"/>
<path d="M84.3114 218.158L140.941 218.158L140.941 337.597L84.3114 337.597L84.3114 218.158Z" fill="#520099"/>
</svg>
