<svg width="321" height="341" viewBox="0 0 321 341" fill="none" xmlns="http://www.w3.org/2000/svg">
<path d="M179.621 340.898C156.431 340.898 135.465 336.927 116.723 328.986C98.2981 321.044 83.6854 309.608 72.8847 294.677C62.084 279.747 57.5022 114.878 57.1845 94.5473H128.66C129.613 108.207 133.4 266.246 141.977 274.188C150.872 282.13 162.943 286.1 178.191 286.1C193.757 286.1 205.987 282.447 214.882 275.141C223.776 267.517 228.224 257.669 228.224 245.598C228.224 235.75 225.206 227.65 219.17 221.296C213.135 214.943 205.511 210.019 196.298 206.525C187.404 202.713 175.015 198.583 159.131 194.136C137.53 187.783 119.899 181.588 106.24 175.552C92.8977 169.199 81.3029 159.828 71.4552 147.439C61.9252 134.732 57.1602 117.896 57.1602 96.9298C57.1602 77.2344 62.084 60.0804 71.9317 45.4677C81.7794 30.855 95.5979 19.7367 113.387 12.1127C131.177 4.17105 151.507 0.200195 174.379 0.200195C208.687 0.200195 236.483 8.61837 257.767 25.4547C279.368 41.9734 291.281 65.1631 293.504 95.0238H220.123C219.488 83.5878 214.564 74.2166 205.352 66.9103C196.457 59.2863 184.545 55.4743 169.614 55.4743C156.59 55.4743 146.107 58.8098 138.165 65.4808C130.541 72.1518 128.66 81.8406 128.66 94.5473C128.66 103.442 129.588 110.907 135.306 116.943C141.342 122.661 148.648 127.426 157.225 131.238C166.12 134.732 178.509 138.862 194.392 143.627C215.994 149.98 233.624 156.333 247.284 162.687C260.944 169.04 272.697 178.57 282.545 191.277C292.393 203.984 297.317 220.661 297.317 241.309C297.317 259.099 292.71 275.617 283.498 290.866C274.286 306.114 260.785 318.344 242.995 327.556C225.206 336.451 204.081 340.898 179.621 340.898Z" fill="#520099"/>
<path d="M29.877 278.873L35.8802 278.565L35.5183 271.503L38.255 271.362L38.6169 278.425L44.8849 278.104L44.4777 270.158L47.2144 270.018L47.7935 281.318L27.3122 282.368L26.7332 271.068L29.4699 270.928L29.877 278.873ZM30.1043 258.55C30.0389 257.275 30.2455 256.123 30.7239 255.096C31.2013 254.048 31.9453 253.214 32.9559 252.591C33.9665 251.969 35.2075 251.62 36.6788 251.545L46.2427 251.055L46.4131 254.38L37.3495 254.845C35.8978 254.919 34.8079 255.339 34.08 256.104C33.3325 256.87 32.9909 257.881 33.0553 259.136C33.1196 260.392 33.5632 261.372 34.3862 262.078C35.1885 262.764 36.3155 263.07 37.7672 262.996L46.8308 262.532L47.0027 265.886L30.7883 266.717L30.6164 263.362L32.4703 263.267C31.7752 262.752 31.2196 262.083 30.8036 261.258C30.3867 260.414 30.1535 259.511 30.1043 258.55ZM29.2094 241.088C29.1451 239.832 29.3433 238.71 29.8041 237.723C30.2443 236.717 30.823 235.92 31.5404 235.333L29.1862 235.453L29.0128 232.069L45.492 231.225C46.983 231.148 48.3233 231.394 49.5129 231.963C50.7222 232.53 51.691 233.395 52.4193 234.558C53.1466 235.701 53.5525 237.096 53.637 238.744C53.7496 240.941 53.3232 242.792 52.3578 244.297C51.4121 245.801 50.0614 246.697 48.3059 246.983L48.1355 243.658C48.966 243.36 49.6151 242.786 50.083 241.936C50.5694 241.065 50.783 240.051 50.7237 238.893C50.6543 237.54 50.1866 236.472 49.3204 235.69C48.4532 234.889 47.2349 234.528 45.6654 234.609L42.9581 234.748C43.7524 235.277 44.4395 236.019 45.0194 236.973C45.5788 237.908 45.8901 238.994 45.9534 240.229C46.0258 241.642 45.7391 242.955 45.0931 244.168C44.4266 245.363 43.4733 246.336 42.2333 247.088C40.9727 247.821 39.5282 248.23 37.8999 248.313C36.2716 248.397 34.8126 248.137 33.5229 247.534C32.2321 246.912 31.2138 246.04 30.4678 244.918C29.7013 243.777 29.2818 242.5 29.2094 241.088ZM37.2787 235.039C36.1604 235.096 35.2014 235.381 34.4016 235.894C33.6007 236.388 33.0036 237.018 32.6102 237.786C32.2168 238.553 32.0423 239.369 32.0865 240.232C32.1307 241.095 32.3877 241.888 32.8575 242.612C33.3077 243.336 33.9569 243.913 34.805 244.341C35.6324 244.751 36.6053 244.928 37.7235 244.87C38.8417 244.813 39.8111 244.537 40.6315 244.043C41.451 243.529 42.0672 242.887 42.4802 242.119C42.8726 241.331 43.0472 240.516 43.004 239.672C42.9597 238.809 42.7027 238.016 42.2329 237.293C41.7631 236.569 41.1047 236.003 40.2576 235.594C39.3899 235.166 38.3969 234.981 37.2787 235.039ZM26.5513 226.066C26.5825 226.674 26.4027 227.195 26.0118 227.628C25.6209 228.061 25.1214 228.293 24.5132 228.325C23.9051 228.356 23.3845 228.176 22.9514 227.785C22.5183 227.394 22.2861 226.895 22.255 226.286C22.2248 225.698 22.4052 225.187 22.796 224.754C23.1869 224.321 23.6864 224.089 24.2946 224.058C24.9027 224.026 25.4234 224.206 25.8565 224.597C26.2896 224.988 26.5212 225.478 26.5513 226.066ZM28.6151 224.308L44.8294 223.477L45.0013 226.832L28.787 227.663L28.6151 224.308ZM27.7053 211.737C27.64 210.462 27.8465 209.31 28.3249 208.282C28.8023 207.235 29.5463 206.4 30.5569 205.778C31.5675 205.156 32.8085 204.807 34.2799 204.732L43.8437 204.242L44.0141 207.567L34.9505 208.031C33.4988 208.106 32.409 208.526 31.6811 209.291C30.9335 210.057 30.5919 211.068 30.6563 212.323C30.7206 213.579 31.1643 214.559 31.9872 215.264C32.7895 215.951 33.9165 216.257 35.3683 216.183L44.4318 215.718L44.6037 219.073L28.3894 219.904L28.2175 216.549L30.0714 216.454C29.3762 215.939 28.8206 215.269 28.4047 214.445C27.9877 213.601 27.7546 212.698 27.7053 211.737ZM34.3584 185.538C34.9666 185.506 35.5179 185.518 36.0124 185.571L36.6472 197.96C37.937 197.795 38.9521 197.261 39.6926 196.358C40.4331 195.455 40.7712 194.375 40.7068 193.12C40.6144 191.315 39.7937 190.078 38.2449 189.41L38.0594 185.791C39.5755 186.205 40.8474 187.034 41.8751 188.28C42.8821 189.507 43.4343 191.072 43.5319 192.975C43.6113 194.525 43.3393 195.935 42.716 197.206C42.0721 198.459 41.1405 199.47 39.9211 200.241C38.6811 200.993 37.2274 201.412 35.5598 201.497C33.8923 201.582 32.4136 201.324 31.1239 200.721C29.8135 200.1 28.7839 199.199 28.0349 198.018C27.2849 196.817 26.8692 195.422 26.7878 193.833C26.7094 192.303 26.973 190.922 27.5787 189.691C28.1844 188.46 29.0783 187.48 30.2605 186.751C31.423 186.022 32.789 185.618 34.3584 185.538ZM33.4785 189.094C32.2436 189.177 31.2755 189.669 30.5742 190.57C29.873 191.472 29.555 192.56 29.6204 193.835C29.6797 194.993 30.1032 195.964 30.8909 196.75C31.659 197.537 32.6748 197.976 33.9384 198.069L33.4785 189.094ZM33.4277 167.376C34.0359 167.344 34.5872 167.356 35.0816 167.409L35.7165 179.798C37.0063 179.633 38.0214 179.099 38.7619 178.196C39.5024 177.292 39.8405 176.213 39.7761 174.957C39.6836 173.153 38.863 171.916 37.3142 171.248L37.1287 167.629C38.6448 168.043 39.9167 168.872 40.9443 170.118C41.9513 171.345 42.5036 172.91 42.6011 174.813C42.6805 176.363 42.4086 177.773 41.7853 179.044C41.1414 180.297 40.2098 181.308 38.9904 182.079C37.7504 182.831 36.2966 183.249 34.6291 183.335C32.9616 183.42 31.4829 183.162 30.1932 182.559C28.8828 181.938 27.8532 181.037 27.1042 179.855C26.3542 178.655 25.9385 177.26 25.8571 175.671C25.7787 174.141 26.0423 172.76 26.648 171.529C27.2537 170.298 28.1476 169.318 29.3297 168.589C30.4923 167.86 31.8582 167.456 33.4277 167.376ZM32.5478 170.932C31.3128 171.015 30.3447 171.507 29.6435 172.408C28.9422 173.31 28.6243 174.398 28.6896 175.673C28.7489 176.831 29.1725 177.802 29.9602 178.588C30.7283 179.375 31.7441 179.814 33.0077 179.907L32.5478 170.932ZM27.7309 160.994C26.8818 160.546 26.211 159.931 25.7186 159.15C25.2055 158.35 24.9203 157.391 24.863 156.273L28.3354 156.095L28.3792 156.948C28.4465 158.263 28.8313 159.246 29.5335 159.898C30.2347 160.531 31.4093 160.806 33.0572 160.721L41.591 160.284L41.763 163.638L25.5486 164.469L25.3767 161.115L27.7309 160.994ZM22.7342 151.579C22.7654 152.187 22.5855 152.708 22.1946 153.141C21.8038 153.574 21.3043 153.806 20.6961 153.837C20.0879 153.868 19.5673 153.688 19.1342 153.298C18.7011 152.907 18.469 152.407 18.4378 151.799C18.4077 151.21 18.588 150.7 18.9789 150.267C19.3698 149.833 19.8693 149.601 20.4774 149.57C21.0856 149.539 21.6062 149.719 22.0393 150.11C22.4724 150.501 22.704 150.99 22.7342 151.579ZM24.7979 149.821L41.0123 148.99L41.1842 152.345L24.9698 153.176L24.7979 149.821ZM23.8882 137.249C23.8228 135.974 24.0293 134.823 24.5078 133.795C24.9852 132.748 25.7292 131.913 26.7398 131.291C27.7504 130.669 28.9914 130.32 30.4627 130.244L40.0265 129.754L40.1969 133.079L31.1334 133.544C29.6816 133.618 28.5918 134.038 27.8639 134.803C27.1164 135.569 26.7748 136.58 26.8391 137.836C26.9035 139.091 27.3471 140.072 28.17 140.777C28.9723 141.464 30.0994 141.77 31.5511 141.695L40.6147 141.231L40.7866 144.586L24.5722 145.416L24.4003 142.062L26.2542 141.967C25.5591 141.452 25.0035 140.782 24.5875 139.957C24.1705 139.113 23.9374 138.211 23.8882 137.249ZM22.9933 119.787C22.9289 118.531 23.1272 117.41 23.588 116.422C24.0282 115.416 24.6069 114.619 25.3243 114.032L22.9701 114.153L22.7967 110.768L39.2759 109.924C40.7668 109.848 42.1072 110.094 43.2968 110.662C44.506 111.23 45.4748 112.095 46.2032 113.257C46.9305 114.4 47.3364 115.795 47.4209 117.443C47.5335 119.641 47.1071 121.492 46.1417 122.997C45.196 124.501 43.8453 125.396 42.0897 125.683L41.9193 122.357C42.7498 122.059 43.399 121.485 43.8669 120.635C44.3533 119.764 44.5669 118.75 44.5076 117.593C44.4382 116.239 43.9704 115.171 43.1042 114.39C42.2371 113.588 41.0187 113.228 39.4493 113.308L36.742 113.447C37.5363 113.977 38.2234 114.718 38.8033 115.672C39.3627 116.607 39.674 117.693 39.7373 118.929C39.8097 120.341 39.5229 121.654 38.877 122.867C38.2104 124.062 37.2572 125.035 36.0172 125.787C34.7566 126.521 33.3121 126.929 31.6838 127.013C30.0555 127.096 28.5965 126.836 27.3068 126.234C26.016 125.611 24.9977 124.739 24.2517 123.617C23.4851 122.476 23.0657 121.199 22.9933 119.787ZM31.0626 113.738C29.9443 113.795 28.9853 114.08 28.1855 114.593C27.3846 115.087 26.7875 115.717 26.3941 116.485C26.0007 117.253 25.8261 118.068 25.8704 118.931C25.9146 119.794 26.1716 120.588 26.6414 121.311C27.0916 122.035 27.7407 122.612 28.5888 123.041C29.4163 123.451 30.3891 123.627 31.5074 123.57C32.6256 123.512 33.595 123.236 34.4154 122.742C35.2349 122.228 35.8511 121.587 36.2641 120.818C36.6565 120.031 36.8311 119.215 36.7878 118.372C36.7436 117.509 36.4866 116.715 36.0168 115.992C35.547 115.269 34.8885 114.702 34.0415 114.293C33.1738 113.866 32.1808 113.681 31.0626 113.738Z" fill="#8800FF"/>
<path d="M198.661 131.408C197.286 131.408 196.048 131.172 194.948 130.701C193.848 130.21 192.984 129.522 192.355 128.638C191.727 127.754 191.412 126.723 191.412 125.544H195.007C195.086 126.428 195.43 127.155 196.038 127.725C196.667 128.294 197.541 128.579 198.661 128.579C199.82 128.579 200.724 128.304 201.372 127.754C202.02 127.184 202.344 126.458 202.344 125.574C202.344 124.886 202.138 124.326 201.725 123.894C201.332 123.462 200.832 123.128 200.223 122.892C199.633 122.657 198.808 122.401 197.747 122.126C196.412 121.773 195.321 121.419 194.477 121.065C193.652 120.692 192.945 120.123 192.355 119.356C191.766 118.59 191.471 117.569 191.471 116.292C191.471 115.113 191.766 114.082 192.355 113.198C192.945 112.314 193.77 111.636 194.83 111.165C195.891 110.693 197.119 110.458 198.514 110.458C200.498 110.458 202.118 110.959 203.375 111.961C204.652 112.943 205.359 114.298 205.497 116.027H201.784C201.725 115.28 201.372 114.642 200.724 114.112C200.075 113.581 199.221 113.316 198.16 113.316C197.197 113.316 196.412 113.561 195.803 114.053C195.194 114.544 194.889 115.251 194.889 116.174C194.889 116.803 195.076 117.323 195.449 117.736C195.842 118.129 196.333 118.443 196.922 118.679C197.512 118.914 198.317 119.17 199.339 119.445C200.694 119.818 201.794 120.191 202.639 120.565C203.503 120.938 204.23 121.517 204.819 122.303C205.428 123.069 205.733 124.1 205.733 125.397C205.733 126.438 205.448 127.42 204.878 128.343C204.328 129.267 203.513 130.013 202.433 130.583C201.372 131.133 200.115 131.408 198.661 131.408ZM216.739 131.467C215.206 131.467 213.822 131.123 212.584 130.436C211.346 129.728 210.374 128.746 209.667 127.489C208.96 126.212 208.606 124.739 208.606 123.069C208.606 121.419 208.969 119.956 209.696 118.679C210.423 117.402 211.415 116.42 212.672 115.732C213.93 115.045 215.334 114.701 216.886 114.701C218.438 114.701 219.842 115.045 221.1 115.732C222.357 116.42 223.349 117.402 224.076 118.679C224.802 119.956 225.166 121.419 225.166 123.069C225.166 124.719 224.793 126.183 224.046 127.46C223.3 128.736 222.278 129.728 220.982 130.436C219.705 131.123 218.29 131.467 216.739 131.467ZM216.739 128.55C217.603 128.55 218.408 128.343 219.155 127.931C219.921 127.518 220.54 126.9 221.011 126.075C221.483 125.25 221.718 124.248 221.718 123.069C221.718 121.89 221.492 120.898 221.041 120.093C220.589 119.268 219.99 118.649 219.243 118.237C218.497 117.824 217.691 117.618 216.827 117.618C215.963 117.618 215.157 117.824 214.411 118.237C213.684 118.649 213.105 119.268 212.672 120.093C212.24 120.898 212.024 121.89 212.024 123.069C212.024 124.817 212.466 126.173 213.35 127.135C214.254 128.078 215.383 128.55 216.739 128.55ZM235.293 117.706H232.288V131.202H228.899V117.706H226.984V114.966H228.899V113.817C228.899 111.951 229.39 110.595 230.372 109.751C231.374 108.886 232.936 108.454 235.057 108.454V111.253C234.036 111.253 233.319 111.45 232.906 111.843C232.494 112.216 232.288 112.874 232.288 113.817V114.966H235.293V117.706ZM242.189 117.706V126.693C242.189 127.302 242.326 127.744 242.601 128.019C242.896 128.275 243.387 128.402 244.075 128.402H246.137V131.202H243.485C241.973 131.202 240.814 130.848 240.009 130.141C239.203 129.434 238.8 128.285 238.8 126.693V117.706H236.885V114.966H238.8V110.929H242.189V114.966H246.137V117.706H242.189ZM271.038 114.966L265.999 131.202H262.463L259.193 119.209L255.922 131.202H252.386L247.318 114.966H250.736L254.125 128.019L257.572 114.966H261.079L264.379 127.96L267.738 114.966H271.038ZM272.429 123.01C272.429 121.38 272.763 119.936 273.43 118.679C274.118 117.422 275.041 116.449 276.2 115.762C277.379 115.054 278.675 114.701 280.09 114.701C281.367 114.701 282.476 114.956 283.419 115.467C284.382 115.958 285.148 116.577 285.718 117.323V114.966H289.106V131.202H285.718V128.785C285.148 129.552 284.372 130.19 283.39 130.701C282.408 131.211 281.288 131.467 280.031 131.467C278.636 131.467 277.359 131.113 276.2 130.406C275.041 129.679 274.118 128.677 273.43 127.401C272.763 126.104 272.429 124.641 272.429 123.01ZM285.718 123.069C285.718 121.949 285.482 120.977 285.011 120.152C284.559 119.327 283.96 118.698 283.213 118.266C282.467 117.834 281.661 117.618 280.797 117.618C279.933 117.618 279.127 117.834 278.381 118.266C277.634 118.679 277.025 119.297 276.554 120.123C276.102 120.928 275.876 121.89 275.876 123.01C275.876 124.13 276.102 125.112 276.554 125.957C277.025 126.801 277.634 127.45 278.381 127.901C279.147 128.334 279.952 128.55 280.797 128.55C281.661 128.55 282.467 128.334 283.213 127.901C283.96 127.469 284.559 126.841 285.011 126.016C285.482 125.171 285.718 124.189 285.718 123.069ZM296.877 117.323C297.369 116.498 298.017 115.86 298.822 115.408C299.647 114.937 300.62 114.701 301.739 114.701V118.178H300.885C299.569 118.178 298.567 118.512 297.879 119.18C297.211 119.848 296.877 121.007 296.877 122.657V131.202H293.518V114.966H296.877V117.323ZM319.707 122.686C319.707 123.295 319.668 123.845 319.589 124.336H307.184C307.282 125.633 307.764 126.674 308.628 127.46C309.492 128.245 310.553 128.638 311.81 128.638C313.618 128.638 314.894 127.882 315.641 126.369H319.265C318.774 127.862 317.88 129.09 316.584 130.052C315.307 130.995 313.716 131.467 311.81 131.467C310.258 131.467 308.864 131.123 307.626 130.436C306.408 129.728 305.446 128.746 304.739 127.489C304.051 126.212 303.707 124.739 303.707 123.069C303.707 121.399 304.041 119.936 304.709 118.679C305.397 117.402 306.349 116.42 307.567 115.732C308.805 115.045 310.219 114.701 311.81 114.701C313.343 114.701 314.708 115.035 315.906 115.703C317.104 116.371 318.037 117.313 318.705 118.531C319.373 119.73 319.707 121.115 319.707 122.686ZM316.201 121.625C316.181 120.388 315.739 119.396 314.875 118.649C314.01 117.903 312.94 117.53 311.663 117.53C310.504 117.53 309.512 117.903 308.687 118.649C307.862 119.376 307.371 120.368 307.214 121.625H316.201Z" fill="#8800FF"/>
</svg>
